SplineFontDB: 3.0
FontName: FifteenTwenty-BoldOblique
FullName: FifteenTwenty Bold Oblique
FamilyName: FifteenTwenty
Weight: Bold
Copyright: FifteenTwenty Bold Oblique\nMade in 2016 by Stewart C. Russell - scruss.com\nLicence: Dual-licensed CC0/WTFPL (srsly)\n
UComments: "Derived from character stroke coordinates from the Commodore 1520 plotter ROM. This has been documented here - http://e4aws.silverdr.com/hacks/6500_1/ - and here - https://github.com/Project-64/reloaded/tree/master/1520/rom+AAoACgAA-This font contains none of the original Commodore coordinates, as they were in a format unusable with current computer systems.+AAoACgAA-Coverage: ASCII."
Version: 001.000
ItalicAngle: -9.462
UnderlinePosition: -100
UnderlineWidth: 50
Ascent: 800
Descent: 200
InvalidEm: 0
LayerCount: 2
Layer: 0 0 "Back" 1
Layer: 1 0 "Fore" 0
XUID: [1021 97 -2058878127 470374]
FSType: 0
OS2Version: 0
OS2_WeightWidthSlopeOnly: 0
OS2_UseTypoMetrics: 1
CreationTime: 1462799702
ModificationTime: 1462800983
PfmFamily: 17
TTFWeight: 700
TTFWidth: 5
LineGap: 90
VLineGap: 0
OS2TypoAscent: 0
OS2TypoAOffset: 1
OS2TypoDescent: 0
OS2TypoDOffset: 1
OS2TypoLinegap: 90
OS2WinAscent: 0
OS2WinAOffset: 1
OS2WinDescent: 0
OS2WinDOffset: 1
HheadAscent: 0
HheadAOffset: 1
HheadDescent: 0
HheadDOffset: 1
OS2Vendor: 'PfEd'
MarkAttachClasses: 1
DEI: 91125
Encoding: UnicodeFull
Compacted: 1
UnicodeInterp: none
NameList: AGL For New Fonts
DisplaySize: -48
AntiAlias: 1
FitToEm: 1
WinInfo: 0 17 10
BeginPrivate: 0
EndPrivate
BeginChars: 1114112 103

StartChar: exclam
Encoding: 33 33 0
Width: 576
VWidth: 228
Flags: W
HStem: 200 21G<181.5 188> 837 20G<283.5 402>
VStem: 145 286
LayerCount: 2
Back
Fore
SplineSet
297 857 m 1
 390 857 l 2
 414 857 431 839 431 816 c 0
 431 813 430 811 430 808 c 2
 368 436 l 2
 365 416 347 395 327 389 c 1
 343 384 353 368 353 350 c 0
 353 348 353 345 353 343 c 2
 337 250 l 2
 333 223 307 201 280 201 c 2
 195 201 l 2
 193 201 189 200 187 200 c 0
 176 200 161 206 154 214 c 0
 154 215 l 0
 149 222 145 234 145 244 c 0
 145 246 145 248 145 250 c 0
 145 252 148 256 148 258 c 2
 162 343 l 2
 165 362 183 383 202 389 c 1
 196 391 188 396 185 400 c 0
 185 401 l 0
 180 408 176 420 176 430 c 0
 176 432 176 434 176 436 c 0
 176 438 179 442 179 444 c 2
 239 808 l 2
 243 835 270 857 297 857 c 1
EndSplineSet
EndChar

StartChar: quotedbl
Encoding: 34 34 1
Width: 576
VWidth: 228
Flags: W
HStem: 665 193<166.357 222.782 352.357 408.782>
VStem: 138 98<678.291 749.875> 154 98<773.125 845.249> 324 98<678.291 749.875> 340 98<773.125 845.249>
LayerCount: 2
Back
Fore
SplineSet
210 858 m 0xa0
 211 858 l 0
 235 858 253 840 253 817 c 0
 253 814 252 812 252 809 c 0
 252 808 l 2xa0
 236 715 l 2
 236 714 l 0
 232 687 206 665 179 665 c 0
 155 665 137 683 137 706 c 0
 137 709 138 711 138 714 c 0
 138 715 l 2xc0
 154 808 l 2
 154 809 l 0
 158 836 183 858 210 858 c 0xa0
396 858 m 0
 397 858 l 0
 421 858 439 840 439 817 c 0
 439 814 438 812 438 809 c 0
 438 808 l 2x88
 422 715 l 2
 422 714 l 0
 418 687 392 665 365 665 c 0
 341 665 323 683 323 706 c 0
 323 709 324 711 324 714 c 0
 324 715 l 2x90
 340 808 l 2
 340 809 l 0x88
 344 836 369 858 396 858 c 0
EndSplineSet
EndChar

StartChar: numbersign
Encoding: 35 35 2
Width: 576
VWidth: 228
Flags: W
HStem: 387 98<49.441 122 237 308 423 494.813> 573 98<80.441 153 268 339 454 526.559>
VStem: 115 98<305.751 380.714> 177 98<677.286 752.249> 301 98<305.751 380.714> 363 98<677.286 751.447>
LayerCount: 2
Back
Fore
SplineSet
233 765 m 0xd0
 235 765 l 0
 259 765 276 747 276 724 c 0
 276 721 275 719 275 716 c 0
 275 715 l 2
 268 671 l 1
 356 671 l 1
 363 715 l 2
 363 716 l 0
 367 743 394 765 421 765 c 0
 445 765 462 747 462 724 c 0
 462 721 461 719 461 716 c 0
 461 715 l 2xd4
 454 671 l 1
 498 671 l 2
 522 671 540 653 540 630 c 0
 540 627 540 625 540 622 c 0
 536 595 508 573 481 573 c 0
 437 573 l 1
 423 485 l 1
 467 485 l 2
 491 485 509 467 509 444 c 0
 509 441 508 439 508 436 c 0
 504 409 477 387 450 387 c 0
 406 387 l 1
 399 343 l 2
 399 342 l 0
 395 315 370 293 343 293 c 0
 319 293 300 311 300 334 c 0
 300 337 301 339 301 342 c 0
 301 343 l 2
 308 387 l 1
 220 387 l 1
 213 343 l 2
 213 342 l 0
 209 315 184 293 157 293 c 0
 133 293 114 311 114 334 c 0
 114 337 115 339 115 342 c 0
 115 343 l 2xe8
 122 387 l 1
 78 387 l 2
 54 387 36 405 36 428 c 0
 36 431 36 433 36 436 c 0
 40 463 68 485 95 485 c 0
 139 485 l 1
 153 573 l 1
 109 573 l 2
 85 573 67 591 67 614 c 0
 67 617 67 619 67 622 c 0
 71 649 99 671 126 671 c 0
 170 671 l 1
 177 715 l 2
 177 716 l 0
 181 743 206 765 233 765 c 0xd0
251 573 m 1
 237 485 l 1
 325 485 l 1
 339 573 l 1
 251 573 l 1
EndSplineSet
EndChar

StartChar: dollar
Encoding: 36 36 3
Width: 576
VWidth: 228
Flags: W
HStem: 200 21G<221 246.5> 294 98<126.674 200 314 338> 666 98<238 262 376 449.326> 838 20G<328.5 355>
VStem: 286 98<769.5 845.249>
LayerCount: 2
Back
Fore
SplineSet
342 858 m 0
 343 858 l 0
 367 858 384 840 384 817 c 0
 384 814 384 812 384 809 c 0
 384 808 l 2
 376 764 l 1
 420 764 l 2
 421 764 l 0
 445 764 463 746 463 723 c 0
 463 720 462 718 462 715 c 0
 458 688 432 666 405 666 c 0
 404 666 l 2
 360 666 l 1
 345 578 l 1
 389 578 l 2
 400 578 415 571 422 563 c 2
 499 470 l 2
 504 463 508 452 508 442 c 0
 508 440 508 438 508 436 c 0
 506 425 497 409 488 401 c 2
 379 308 l 2
 370 300 353 294 342 294 c 2
 298 294 l 1
 291 250 l 2
 290 249 l 0
 286 222 260 200 233 200 c 0
 209 200 192 218 192 241 c 0
 192 244 192 246 192 249 c 0
 193 250 l 2
 200 294 l 1
 156 294 l 2
 155 294 l 0
 131 294 113 312 113 335 c 0
 113 338 114 340 114 343 c 0
 118 370 144 392 171 392 c 0
 172 392 l 2
 216 392 l 1
 231 480 l 1
 187 480 l 2
 176 480 161 486 154 494 c 2
 77 587 l 2
 72 594 68 606 68 616 c 0
 68 618 69 620 69 622 c 0
 71 633 79 648 88 656 c 2
 197 749 l 2
 206 757 223 764 234 764 c 2
 278 764 l 1
 286 808 l 2
 286 809 l 0
 290 836 315 858 342 858 c 0
238 666 m 1
 187 622 l 1
 223 578 l 1
 247 578 l 1
 262 666 l 1
 238 666 l 1
329 480 m 1
 314 392 l 1
 338 392 l 1
 390 436 l 1
 353 480 l 1
 329 480 l 1
EndSplineSet
EndChar

StartChar: percent
Encoding: 37 37 4
Width: 576
VWidth: 228
Flags: W
HStem: 294 191<336.428 479.788> 573 191<96.2119 247.326>
LayerCount: 2
Back
Fore
SplineSet
233 765 m 0
 244 765 260 759 267 751 c 0
 267 750 l 0
 267 749 l 0
 272 742 276 731 276 721 c 0
 276 719 275 717 275 715 c 0
 275 713 274 709 274 707 c 2
 260 622 l 2
 256 595 230 573 203 573 c 2
 109 573 l 2
 85 573 67 591 67 614 c 0
 67 617 68 619 68 622 c 2
 83 715 l 2
 87 742 114 764 141 764 c 2
 227 764 l 2
 229 764 231 765 233 765 c 0
513 764 m 0
 537 764 556 746 556 723 c 0
 556 720 555 718 555 715 c 0
 553 704 542 688 533 680 c 2
 99 308 l 2
 90 300 74 293 63 293 c 0
 39 293 20 311 20 334 c 0
 20 337 21 339 21 342 c 0
 23 353 34 369 43 377 c 2
 477 749 l 2
 486 757 502 764 513 764 c 0
373 485 m 0
 375 485 381 485 383 485 c 2
 467 485 l 2
 491 485 509 467 509 444 c 0
 509 441 509 439 509 436 c 2
 493 343 l 2
 489 316 462 294 435 294 c 2
 343 294 l 2
 319 294 300 312 300 335 c 0
 300 338 301 340 301 343 c 2
 315 428 l 2
 315 430 317 434 317 436 c 0
 319 447 327 462 336 470 c 0
 336 471 l 0
 345 479 362 485 373 485 c 0
EndSplineSet
EndChar

StartChar: ampersand
Encoding: 38 38 5
Width: 576
VWidth: 228
Flags: W
HStem: 201 98<199 253> 837 20G<266.5 277.5>
LayerCount: 2
Back
Fore
SplineSet
272 857 m 0
 283 857 298 850 305 842 c 2
 382 749 l 2
 387 742 391 731 391 721 c 0
 391 719 390 717 390 715 c 2
 375 622 l 2
 373 611 364 595 355 587 c 2
 287 529 l 1
 384 412 l 1
 451 470 l 2
 460 478 479 485 490 485 c 0
 514 485 532 467 532 444 c 0
 532 441 532 439 532 436 c 0
 530 425 519 409 510 401 c 2
 442 343 l 1
 490 284 l 2
 496 277 501 264 501 254 c 0
 501 224 469 200 442 200 c 0
 431 200 416 207 409 215 c 2
 361 273 l 1
 293 215 l 2
 284 207 268 201 257 201 c 2
 163 201 l 2
 152 201 138 207 131 215 c 2
 52 308 l 2
 47 315 44 327 44 337 c 0
 44 339 44 341 44 343 c 2
 60 436 l 2
 62 447 70 462 79 470 c 2
 149 529 l 1
 99 587 l 2
 94 594 90 606 90 616 c 0
 90 618 91 620 91 622 c 2
 106 715 l 2
 108 726 117 741 126 749 c 2
 235 842 l 2
 244 850 261 857 272 857 c 0
252 739 m 1
 201 695 l 1
 192 642 l 1
 229 598 l 1
 280 642 l 1
 289 695 l 1
 252 739 l 1
206 459 m 1
 154 415 l 1
 146 363 l 1
 199 299 l 1
 253 299 l 1
 304 343 l 1
 206 459 l 1
EndSplineSet
EndChar

StartChar: quotesingle
Encoding: 39 39 6
Width: 576
VWidth: 228
Flags: W
HStem: 572 286<267.357 308.326>
VStem: 255 98<766 808 809 845.249>
LayerCount: 2
Back
Fore
SplineSet
311 858 m 0
 312 858 l 0
 336 858 353 840 353 817 c 0
 353 814 353 812 353 809 c 0
 352 808 l 2
 322 622 l 2
 321 621 l 0
 317 594 291 572 264 572 c 0
 240 572 223 590 223 613 c 0
 223 616 223 618 223 621 c 0
 224 622 l 2
 254 808 l 2
 255 809 l 0
 259 836 284 858 311 858 c 0
EndSplineSet
EndChar

StartChar: parenleft
Encoding: 40 40 7
Width: 576
VWidth: 228
Flags: W
HStem: 201 98<262 362.953> 759 98<338 455.953>
LayerCount: 2
Back
Fore
SplineSet
335 857 m 0
 427 857 l 2
 429 857 l 0
 453 857 469 839 469 816 c 0
 469 813 469 811 469 808 c 0
 465 781 439 759 412 759 c 0
 410 759 l 2
 338 759 l 1
 264 695 l 1
 208 363 l 1
 262 299 l 1
 334 299 l 2
 336 299 l 0
 360 299 376 281 376 258 c 0
 376 255 376 253 376 250 c 0
 372 223 346 201 319 201 c 0
 317 201 l 2
 225 201 l 2
 214 201 199 207 192 215 c 2
 115 308 l 2
 110 315 107 327 107 337 c 0
 107 339 107 341 107 343 c 2
 169 715 l 2
 171 726 180 741 189 749 c 2
 296 842 l 2
 305 850 324 857 335 857 c 0
EndSplineSet
EndChar

StartChar: parenright
Encoding: 41 41 8
Width: 576
VWidth: 228
Flags: W
HStem: 201 98<120.047 238> 759 98<213.047 314>
LayerCount: 2
Back
Fore
SplineSet
259 857 m 1
 351 857 l 2
 362 857 375 850 382 842 c 2
 461 749 l 2
 466 742 469 731 469 721 c 0
 469 719 469 717 469 715 c 2
 407 343 l 2
 405 332 396 316 387 308 c 2
 278 215 l 2
 269 207 252 201 241 201 c 2
 149 201 l 2
 147 201 l 0
 123 201 107 219 107 242 c 0
 107 245 107 247 107 250 c 0
 111 277 137 299 164 299 c 0
 166 299 l 2
 238 299 l 1
 312 363 l 1
 368 695 l 1
 314 759 l 1
 242 759 l 2
 240 759 l 0
 216 759 200 777 200 800 c 0
 200 803 200 805 200 808 c 0
 204 835 230 857 257 857 c 0
 259 857 l 1
EndSplineSet
EndChar

StartChar: asterisk
Encoding: 42 42 9
Width: 576
VWidth: 228
Flags: W
VStem: 209 98<306.553 379.545> 271 98<677.909 752.249>
LayerCount: 2
Back
Fore
SplineSet
327 765 m 0x40
 351 765 370 747 370 724 c 0
 370 721 369 719 369 716 c 0
 369 715 l 2x40
 358 647 l 1
 477 749 l 2
 486 757 502 764 513 764 c 0
 537 764 556 746 556 723 c 0
 556 720 555 718 555 715 c 0
 553 704 542 688 533 680 c 2
 358 529 l 1
 483 377 l 2
 489 370 493 357 493 347 c 0
 493 317 462 293 435 293 c 0
 424 293 410 300 403 308 c 2
 318 410 l 1
 307 343 l 2
 307 342 l 0
 303 315 276 293 249 293 c 0
 225 293 208 311 208 334 c 0
 208 337 209 339 209 342 c 0
 209 343 l 2x80
 220 410 l 1
 99 308 l 2
 90 300 74 293 63 293 c 0
 39 293 20 311 20 334 c 0
 20 337 21 339 21 342 c 0
 23 353 34 369 43 377 c 2
 218 529 l 1
 93 680 l 2
 87 687 83 700 83 710 c 0
 83 740 114 764 141 764 c 0
 152 764 166 757 173 749 c 2
 260 647 l 1
 271 715 l 2
 271 716 l 0
 275 743 300 765 327 765 c 0x40
EndSplineSet
EndChar

StartChar: plus
Encoding: 43 43 10
Width: 576
VWidth: 228
Flags: W
HStem: 480 98<64.9902 232 346 511.01>
VStem: 209 98<306.553 378.739> 271 98<679.261 752.249>
LayerCount: 2
Back
Fore
SplineSet
327 765 m 0xa0
 351 765 370 747 370 724 c 0
 370 721 369 719 369 716 c 0
 369 715 l 2xa0
 346 578 l 1
 482 578 l 2
 506 578 525 560 525 537 c 0
 525 534 524 532 524 529 c 0
 520 502 493 480 466 480 c 0
 330 480 l 1
 307 343 l 2
 307 342 l 0
 303 315 276 293 249 293 c 0
 225 293 208 311 208 334 c 0
 208 337 209 339 209 342 c 0
 209 343 l 2xc0
 232 480 l 1
 94 480 l 2
 70 480 51 498 51 521 c 0
 51 524 52 526 52 529 c 0
 56 556 83 578 110 578 c 0
 248 578 l 1
 271 715 l 2
 271 716 l 0
 275 743 300 765 327 765 c 0xa0
EndSplineSet
EndChar

StartChar: comma
Encoding: 44 44 11
Width: 576
VWidth: 228
Flags: W
HStem: 107 285<220.674 263.125>
VStem: 176 224
LayerCount: 2
Back
Fore
SplineSet
265 392 m 2
 359 392 l 2
 383 392 400 374 400 351 c 0
 400 348 400 346 400 343 c 2
 385 258 l 2
 385 256 384 252 384 250 c 0
 382 237 371 219 359 211 c 2
 255 122 l 2
 246 114 228 107 217 107 c 0
 193 107 176 125 176 148 c 0
 176 151 176 153 176 156 c 0
 178 167 188 183 197 191 c 2
 214 205 l 1
 201 211 192 228 192 244 c 0
 192 246 192 248 192 250 c 2
 208 343 l 2
 212 370 238 392 265 392 c 2
EndSplineSet
EndChar

StartChar: hyphen
Encoding: 45 45 12
Width: 576
VWidth: 228
Flags: W
HStem: 480 98<64.9902 511.01>
LayerCount: 2
Back
Fore
SplineSet
110 578 m 0
 482 578 l 2
 506 578 525 560 525 537 c 0
 525 534 524 532 524 529 c 0
 520 502 493 480 466 480 c 0
 94 480 l 2
 70 480 51 498 51 521 c 0
 51 524 52 526 52 529 c 0
 56 556 83 578 110 578 c 0
EndSplineSet
EndChar

StartChar: period
Encoding: 46 46 13
Width: 576
VWidth: 228
Flags: W
HStem: 201 191<213.726 362.704>
VStem: 184 208
LayerCount: 2
Back
Fore
SplineSet
258 392 m 1
 351 392 l 2
 375 392 392 374 392 351 c 0
 392 348 392 346 392 343 c 2
 376 250 l 2
 372 223 346 201 319 201 c 2
 234 201 l 2
 232 201 228 200 226 200 c 0
 215 200 200 206 193 214 c 0
 192 215 l 0
 187 222 184 234 184 244 c 0
 184 246 184 248 184 250 c 0
 184 252 186 256 186 258 c 2
 201 343 l 2
 205 370 231 392 258 392 c 1
EndSplineSet
EndChar

StartChar: slash
Encoding: 47 47 14
Width: 576
VWidth: 228
Flags: W
HStem: 200 21G<-4 13.5>
LayerCount: 2
Back
Fore
SplineSet
567 764 m 0
 568 764 l 0
 592 764 610 746 610 723 c 0
 610 720 609 718 609 715 c 0
 607 704 597 688 588 680 c 2
 46 215 l 2
 37 207 19 200 8 200 c 0
 -16 200 -34 218 -34 241 c 0
 -34 244 -33 246 -33 249 c 0
 -31 260 -21 276 -12 284 c 2
 530 749 l 2
 539 757 556 764 567 764 c 0
EndSplineSet
EndChar

StartChar: zero
Encoding: 48 48 15
Width: 576
VWidth: 228
Flags: W
HStem: 201 98<178 322> 759 98<255 399>
LayerCount: 2
Back
Fore
SplineSet
249 857 m 0
 437 857 l 2
 448 857 461 850 468 842 c 2
 542 754 l 2
 549 747 554 734 554 722 c 0
 554 720 553 718 553 716 c 0
 555 715 l 0
 493 343 l 2
 491 332 480 316 471 308 c 2
 364 215 l 2
 355 207 339 201 328 201 c 2
 140 201 l 2
 129 201 115 207 108 215 c 2
 35 303 l 2
 27 310 21 323 21 336 c 0
 21 338 21 340 21 342 c 0
 21 344 22 347 22 349 c 2
 83 715 l 2
 85 726 96 741 105 749 c 2
 212 842 l 2
 221 850 238 857 249 857 c 0
255 759 m 1
 178 695 l 1
 139 461 l 1
 435 715 l 1
 399 759 l 1
 255 759 l 1
438 597 m 1
 141 343 l 1
 178 299 l 1
 322 299 l 1
 399 363 l 1
 438 597 l 1
EndSplineSet
EndChar

StartChar: one
Encoding: 49 49 16
Width: 576
VWidth: 228
Flags: W
HStem: 201 98<158.764 248 346 416.953> 837 20G<381.5 401>
VStem: 248 98<299 340.918>
LayerCount: 2
Back
Fore
SplineSet
387 857 m 0
 389 857 l 0
 413 857 431 839 431 816 c 0
 431 813 431 811 431 808 c 2
 346 299 l 1
 390 299 l 2
 414 299 430 281 430 258 c 0
 430 255 430 253 430 250 c 0
 426 223 400 201 373 201 c 0
 287 201 l 2
 285 201 281 200 279 200 c 0
 277 200 273 201 271 201 c 2
 187 201 l 2
 185 201 l 0
 161 201 145 219 145 242 c 0
 145 245 146 247 146 250 c 0
 150 277 175 299 202 299 c 0
 204 299 l 2
 248 299 l 1
 313 690 l 1
 301 680 l 2
 292 672 274 665 263 665 c 0
 239 665 222 683 222 706 c 0
 222 709 223 711 223 714 c 0
 225 725 234 741 243 749 c 2
 352 842 l 2
 361 850 376 857 387 857 c 0
EndSplineSet
EndChar

StartChar: two
Encoding: 50 50 17
Width: 576
VWidth: 228
Flags: W
HStem: 201 98<190 471.813> 759 98<262 406>
LayerCount: 2
Back
Fore
SplineSet
259 857 m 0
 445 857 l 2
 456 857 469 850 476 842 c 2
 553 749 l 2
 560 741 565 726 563 715 c 2
 547 622 l 2
 545 611 535 595 526 587 c 2
 190 299 l 1
 444 299 l 2
 468 299 486 281 486 258 c 0
 486 255 485 253 485 250 c 0
 481 223 454 201 427 201 c 0
 55 201 l 2
 31 201 13 219 13 242 c 0
 13 245 13 247 13 250 c 0
 15 261 26 276 35 284 c 2
 453 642 l 1
 462 695 l 1
 406 759 l 1
 262 759 l 1
 169 680 l 2
 160 672 144 665 133 665 c 0
 109 665 90 683 90 706 c 0
 90 709 91 711 91 714 c 0
 93 725 104 741 113 749 c 2
 220 842 l 2
 229 850 248 857 259 857 c 0
EndSplineSet
EndChar

StartChar: three
Encoding: 51 51 18
Width: 576
VWidth: 228
Flags: W
HStem: 201 98<178 322> 480 98<250.99 352> 759 98<254 398>
CounterMasks: 1 e0
LayerCount: 2
Back
Fore
SplineSet
251 857 m 0
 437 857 l 2
 448 857 461 850 468 842 c 2
 545 749 l 2
 552 741 557 726 555 715 c 2
 540 622 l 2
 538 611 527 595 518 587 c 2
 450 529 l 1
 498 470 l 2
 505 462 511 447 509 436 c 2
 493 343 l 2
 491 332 480 316 471 308 c 2
 364 215 l 2
 355 207 338 201 327 201 c 2
 141 201 l 2
 130 201 115 207 108 215 c 2
 31 308 l 2
 25 315 21 328 21 338 c 0
 21 368 52 392 79 392 c 0
 90 392 104 385 111 377 c 2
 178 299 l 1
 322 299 l 1
 398 363 l 1
 407 415 l 1
 352 480 l 1
 280 480 l 2
 256 480 237 498 237 521 c 0
 237 524 238 526 238 529 c 0
 242 556 269 578 296 578 c 0
 368 578 l 1
 445 642 l 1
 454 695 l 1
 398 759 l 1
 254 759 l 1
 161 680 l 2
 152 672 136 665 125 665 c 0
 101 665 82 683 82 706 c 0
 82 709 83 711 83 714 c 0
 85 725 96 741 105 749 c 2
 212 842 l 2
 221 850 240 857 251 857 c 0
EndSplineSet
EndChar

StartChar: four
Encoding: 52 52 19
Width: 576
VWidth: 228
Flags: W
HStem: 200 21G<329 354.5> 387 98<158 324 438 511.01> 837 20G<444.5 462>
VStem: 301 98<213.553 285.739>
LayerCount: 2
Back
Fore
SplineSet
450 857 m 0
 474 857 493 839 493 816 c 0
 493 813 492 811 492 808 c 2
 438 485 l 1
 482 485 l 2
 506 485 525 467 525 444 c 0
 525 441 524 439 524 436 c 0
 520 409 493 387 466 387 c 0
 422 387 l 1
 399 250 l 2
 399 249 l 0
 395 222 368 200 341 200 c 0
 317 200 300 218 300 241 c 0
 300 244 301 246 301 249 c 0
 301 250 l 2
 324 387 l 1
 94 387 l 2
 70 387 51 405 51 428 c 0
 51 431 52 433 52 436 c 2
 68 529 l 2
 70 540 78 555 87 563 c 2
 414 842 l 2
 423 850 439 857 450 857 c 0
374 690 m 1
 162 508 l 1
 158 485 l 1
 340 485 l 1
 374 690 l 1
EndSplineSet
EndChar

StartChar: five
Encoding: 53 53 20
Width: 576
VWidth: 228
Flags: W
HStem: 201 98<170 314> 573 98<166 359> 759 98<180 549.559>
LayerCount: 2
Back
Fore
SplineSet
149 857 m 1
 521 857 l 2
 545 857 563 839 563 816 c 0
 563 813 563 811 563 808 c 0
 559 781 531 759 504 759 c 0
 180 759 l 1
 166 671 l 1
 398 671 l 2
 409 671 422 664 429 656 c 2
 506 563 l 2
 513 555 518 540 516 529 c 2
 485 343 l 2
 483 332 472 316 463 308 c 2
 356 215 l 2
 347 207 330 201 319 201 c 2
 133 201 l 2
 122 201 107 207 100 215 c 2
 23 308 l 2
 17 315 13 328 13 338 c 0
 13 368 44 392 71 392 c 0
 82 392 96 385 103 377 c 2
 170 299 l 1
 314 299 l 1
 390 363 l 1
 415 508 l 1
 359 573 l 1
 101 573 l 2
 77 573 59 591 59 614 c 0
 59 617 60 619 60 622 c 2
 91 808 l 2
 95 835 122 857 149 857 c 1
EndSplineSet
EndChar

StartChar: six
Encoding: 54 54 21
Width: 576
VWidth: 228
Flags: W
HStem: 201 98<178 322> 573 98<223 367> 759 98<254 398>
LayerCount: 2
Back
Fore
SplineSet
249 857 m 0
 437 857 l 2
 448 857 461 850 468 842 c 2
 545 749 l 2
 551 742 555 729 555 719 c 0
 555 689 524 665 497 665 c 0
 486 665 472 672 465 680 c 2
 398 759 l 1
 254 759 l 1
 178 695 l 1
 170 647 l 1
 181 656 l 2
 190 664 207 671 218 671 c 2
 406 671 l 2
 417 671 430 664 437 656 c 2
 514 563 l 2
 521 555 526 540 524 529 c 2
 493 343 l 2
 491 332 480 316 471 308 c 2
 364 215 l 2
 355 207 338 201 327 201 c 2
 139 201 l 2
 128 201 115 207 108 215 c 2
 31 308 l 2
 24 316 19 332 21 343 c 2
 51 522 l 2
 51 524 52 526 52 528 c 0
 52 530 53 533 53 535 c 2
 83 715 l 2
 85 726 96 741 105 749 c 2
 212 842 l 2
 221 850 238 857 249 857 c 0
223 573 m 1
 147 508 l 1
 122 363 l 1
 178 299 l 1
 322 299 l 1
 398 363 l 1
 423 508 l 1
 367 573 l 1
 223 573 l 1
EndSplineSet
EndChar

StartChar: seven
Encoding: 55 55 22
Width: 576
VWidth: 228
Flags: W
HStem: 200 21G<35 52.5> 759 98<112.187 464>
LayerCount: 2
Back
Fore
SplineSet
157 857 m 0
 529 857 l 2
 553 857 571 839 571 816 c 0
 571 813 571 811 571 808 c 2
 540 622 l 2
 538 611 527 595 518 587 c 2
 84 215 l 2
 75 207 58 200 47 200 c 0
 23 200 5 218 5 241 c 0
 5 244 5 246 5 249 c 0
 7 260 18 276 27 284 c 2
 445 642 l 1
 464 759 l 1
 140 759 l 2
 116 759 98 777 98 800 c 0
 98 803 99 805 99 808 c 0
 103 835 130 857 157 857 c 0
EndSplineSet
EndChar

StartChar: eight
Encoding: 56 56 23
Width: 576
VWidth: 228
Flags: W
HStem: 201 98<177 323> 480 98<223 353> 759 98<253 399>
CounterMasks: 1 e0
LayerCount: 2
Back
Fore
SplineSet
250 857 m 0
 436 857 l 2
 447 857 461 850 468 842 c 2
 546 749 l 2
 551 742 554 731 554 721 c 0
 554 719 554 717 554 715 c 2
 539 622 l 2
 537 611 528 595 519 587 c 2
 450 529 l 1
 499 470 l 2
 504 463 508 452 508 442 c 0
 508 440 508 438 508 436 c 2
 492 343 l 2
 490 332 481 316 472 308 c 2
 364 215 l 2
 355 207 337 201 326 201 c 2
 140 201 l 2
 129 201 115 207 108 215 c 2
 30 308 l 2
 25 315 22 327 22 337 c 0
 22 339 22 341 22 343 c 2
 38 436 l 2
 40 447 48 462 57 470 c 2
 126 529 l 1
 77 587 l 2
 72 594 68 606 68 616 c 0
 68 618 69 620 69 622 c 2
 84 715 l 2
 86 726 95 741 104 749 c 2
 212 842 l 2
 221 850 239 857 250 857 c 0
253 759 m 1
 179 695 l 1
 170 642 l 1
 223 578 l 1
 369 578 l 1
 444 642 l 1
 453 695 l 1
 399 759 l 1
 253 759 l 1
207 480 m 1
 132 415 l 1
 123 363 l 1
 177 299 l 1
 323 299 l 1
 397 363 l 1
 406 415 l 1
 353 480 l 1
 207 480 l 1
EndSplineSet
EndChar

StartChar: nine
Encoding: 57 57 24
Width: 576
VWidth: 228
Flags: W
HStem: 201 98<178 322> 480 98<224 368> 759 98<254 398>
CounterMasks: 1 e0
LayerCount: 2
Back
Fore
SplineSet
251 857 m 0
 437 857 l 2
 448 857 461 850 468 842 c 2
 545 749 l 2
 552 741 557 726 555 715 c 2
 541 629 l 2
 541 627 540 624 540 622 c 0
 540 620 539 618 539 616 c 2
 493 343 l 2
 491 332 480 316 471 308 c 2
 364 215 l 2
 355 207 338 201 327 201 c 2
 141 201 l 2
 130 201 115 207 108 215 c 2
 31 308 l 2
 25 315 21 328 21 338 c 0
 21 368 52 392 79 392 c 0
 90 392 104 385 111 377 c 2
 178 299 l 1
 322 299 l 1
 398 363 l 1
 422 503 l 1
 410 494 l 2
 401 486 385 480 374 480 c 2
 188 480 l 2
 177 480 161 486 154 494 c 2
 78 587 l 2
 71 595 66 611 68 622 c 2
 83 715 l 2
 85 726 96 741 105 749 c 2
 212 842 l 2
 221 850 240 857 251 857 c 0
254 759 m 1
 178 695 l 1
 169 642 l 1
 224 578 l 1
 368 578 l 1
 445 642 l 1
 454 695 l 1
 398 759 l 1
 254 759 l 1
EndSplineSet
EndChar

StartChar: colon
Encoding: 58 58 25
Width: 576
VWidth: 228
Flags: W
HStem: 294 191<190.148 339.704> 573 191<236.726 385.782>
VStem: 160 256
LayerCount: 2
Back
Fore
SplineSet
281 764 m 0
 374 764 l 2
 398 764 416 746 416 723 c 0
 416 720 415 718 415 715 c 2
 399 622 l 2
 395 595 369 573 342 573 c 2
 257 573 l 2
 255 573 251 572 249 572 c 0
 238 572 223 578 216 586 c 0
 216 587 l 0
 211 594 207 606 207 616 c 0
 207 618 207 620 207 622 c 0
 207 624 210 628 210 630 c 2
 224 715 l 2
 228 742 254 764 281 764 c 0
235 485 m 1
 328 485 l 2
 352 485 369 467 369 444 c 0
 369 441 368 439 368 436 c 2
 353 343 l 2
 349 316 323 294 296 294 c 2
 211 294 l 2
 209 294 205 293 203 293 c 0
 192 293 177 299 170 307 c 0
 169 308 l 0
 164 315 160 327 160 337 c 0
 160 339 161 341 161 343 c 0
 161 345 163 349 163 351 c 2
 177 436 l 2
 181 463 208 485 235 485 c 1
EndSplineSet
EndChar

StartChar: semicolon
Encoding: 59 59 26
Width: 576
VWidth: 228
Flags: W
HStem: 200 21G<182 199.5> 573 191<245.296 387.969>
VStem: 152 272
LayerCount: 2
Back
Fore
SplineSet
289 764 m 0
 382 764 l 2
 406 764 424 746 424 723 c 0
 424 720 423 718 423 715 c 2
 409 630 l 2
 409 628 407 624 407 622 c 0
 405 611 397 596 388 588 c 0
 388 587 l 0
 386 586 l 0
 377 578 361 572 350 572 c 0
 348 572 344 573 342 573 c 2
 257 573 l 2
 233 573 216 591 216 614 c 0
 216 617 216 619 216 622 c 2
 232 715 l 2
 236 742 262 764 289 764 c 0
242 485 m 2
 336 485 l 2
 360 485 377 467 377 444 c 0
 377 441 376 439 376 436 c 2
 362 351 l 2
 362 349 361 345 361 343 c 0
 359 330 347 312 335 304 c 2
 232 215 l 2
 223 207 205 200 194 200 c 0
 170 200 152 218 152 241 c 0
 152 244 153 246 153 249 c 0
 155 260 165 276 174 284 c 2
 190 298 l 1
 177 304 169 321 169 336 c 0
 169 338 170 341 170 343 c 2
 185 436 l 2
 189 463 215 485 242 485 c 2
EndSplineSet
EndChar

StartChar: less
Encoding: 60 60 27
Width: 576
VWidth: 228
Flags: W
HStem: 200 21G<344.5 363.5> 837 20G<451.5 471>
LayerCount: 2
Back
Fore
SplineSet
457 857 m 0
 459 857 l 0
 483 857 501 839 501 816 c 0
 501 813 500 811 500 808 c 0
 498 797 488 781 479 773 c 2
 194 529 l 1
 398 284 l 2
 404 277 407 264 407 254 c 0
 407 252 407 251 407 249 c 0
 403 222 377 200 350 200 c 0
 339 200 323 207 316 215 c 2
 84 494 l 2
 79 501 75 513 75 523 c 0
 75 525 76 527 76 529 c 0
 78 540 86 555 95 563 c 2
 421 842 l 2
 430 850 446 857 457 857 c 0
EndSplineSet
EndChar

StartChar: equal
Encoding: 61 61 28
Width: 576
VWidth: 228
Flags: W
HStem: 387 98<96.6738 449.01> 573 98<126.99 479.326>
LayerCount: 2
Back
Fore
SplineSet
173 671 m 2
 452 671 l 2
 476 671 493 653 493 630 c 0
 493 627 492 625 492 622 c 0
 488 595 462 573 435 573 c 0
 156 573 l 2
 155 573 l 0
 131 573 114 591 114 614 c 0
 114 617 114 619 114 622 c 0
 118 649 145 671 172 671 c 0
 173 671 l 2
142 485 m 2
 421 485 l 2
 445 485 462 467 462 444 c 0
 462 441 462 439 462 436 c 0
 458 409 431 387 404 387 c 0
 125 387 l 2
 124 387 l 0
 100 387 83 405 83 428 c 0
 83 431 84 433 84 436 c 0
 88 463 114 485 141 485 c 0
 142 485 l 2
EndSplineSet
EndChar

StartChar: greater
Encoding: 62 62 29
Width: 576
VWidth: 228
Flags: W
HStem: 200 21G<105 122.5> 837 20G<212.5 231.5>
LayerCount: 2
Back
Fore
SplineSet
226 857 m 0
 237 857 252 850 259 842 c 2
 491 563 l 2
 497 556 501 544 501 534 c 0
 501 532 500 531 500 529 c 0
 498 518 489 502 480 494 c 2
 154 215 l 2
 145 207 128 200 117 200 c 0
 93 200 75 218 75 241 c 0
 75 244 76 246 76 249 c 0
 78 260 88 276 97 284 c 2
 381 529 l 1
 178 773 l 2
 172 780 169 793 169 803 c 0
 169 805 169 806 169 808 c 0
 173 835 199 857 226 857 c 0
EndSplineSet
EndChar

StartChar: question
Encoding: 63 63 30
Width: 576
VWidth: 228
Flags: W
HStem: 200 21G<190 215.5> 480 98<299 337> 759 98<224 368>
VStem: 163 98<214.024 287.2> 194 98<427.14 479.4>
LayerCount: 2
Back
Fore
SplineSet
220 857 m 0xe8
 406 857 l 2
 417 857 430 850 437 842 c 2
 514 749 l 2
 521 741 526 726 524 715 c 2
 509 622 l 2
 507 611 496 595 487 587 c 2
 379 494 l 2
 370 486 354 480 343 480 c 2
 299 480 l 1
 292 436 l 2
 292 435 l 0xe8
 289 416 271 396 252 389 c 1
 267 383 277 367 277 350 c 0
 277 348 276 345 276 343 c 0
 261 250 l 2
 261 249 l 0
 257 222 229 200 202 200 c 0
 178 200 162 218 162 241 c 0
 162 244 163 246 163 249 c 0
 163 250 l 2xf0
 178 343 l 2
 181 362 197 382 216 389 c 1
 201 395 193 411 193 427 c 0
 193 430 194 432 194 435 c 0
 194 436 l 2
 209 529 l 2
 213 556 238 578 265 578 c 2
 337 578 l 1
 414 642 l 1
 423 695 l 1
 368 759 l 1
 224 759 l 1
 130 680 l 2
 121 672 105 665 94 665 c 0
 70 665 51 683 51 706 c 0
 51 709 52 711 52 714 c 0
 54 725 65 741 74 749 c 2
 181 842 l 2
 190 850 209 857 220 857 c 0xe8
EndSplineSet
EndChar

StartChar: at
Encoding: 64 64 31
Width: 576
VWidth: 228
Flags: W
HStem: 201 191<230 344> 201 98<372 473.01>
LayerCount: 2
Back
Fore
SplineSet
242 764 m 2x40
 428 764 l 2
 439 764 454 757 461 749 c 2
 538 656 l 2
 543 649 547 638 547 628 c 0
 547 626 546 624 546 622 c 2
 515 436 l 2
 513 425 504 409 495 401 c 2
 388 308 l 2
 384 305 376 301 372 299 c 2
 444 299 l 2
 468 299 487 281 487 258 c 0
 487 255 486 253 486 250 c 0
 482 223 455 201 428 201 c 0
 148 201 l 2
 137 201 123 207 116 215 c 2
 38 308 l 2
 33 315 29 327 29 337 c 0
 29 339 30 341 30 343 c 2
 76 622 l 2
 78 633 87 648 96 656 c 2
 205 749 l 2
 214 757 231 764 242 764 c 2x40
260 573 m 1
 230 392 l 1
 344 392 l 1x80
 333 399 325 414 325 429 c 0
 325 431 325 433 325 435 c 0
 325 436 l 2
 348 573 l 1
 260 573 l 1
EndSplineSet
EndChar

StartChar: A
Encoding: 65 65 32
Width: 576
VWidth: 228
Flags: W
HStem: 200 21G<50 75.5 422 447.5> 480 98<175 433> 837 20G<351.5 362.5>
VStem: 22 98<213.553 286.133> 394 98<213.553 285.385>
LayerCount: 2
Back
Fore
SplineSet
357 857 m 0
 368 857 382 850 389 842 c 2
 544 656 l 2
 551 648 556 633 554 622 c 2
 540 537 l 2
 540 535 539 531 539 529 c 0
 539 527 537 523 537 521 c 2
 492 250 l 2
 492 249 l 0
 488 222 461 200 434 200 c 0
 410 200 393 218 393 241 c 0
 393 244 394 246 394 249 c 0
 394 250 l 2
 433 480 l 1
 159 480 l 1
 120 250 l 2
 120 249 l 0
 116 222 89 200 62 200 c 0
 38 200 21 218 21 241 c 0
 21 244 22 246 22 249 c 0
 22 250 l 2
 67 521 l 2
 67 523 67 527 67 529 c 0
 67 531 70 535 70 537 c 2
 84 622 l 2
 86 633 95 648 104 656 c 2
 321 842 l 2
 330 850 346 857 357 857 c 0
338 739 m 1
 179 601 l 1
 175 578 l 1
 449 578 l 1
 453 601 l 1
 338 739 l 1
EndSplineSet
EndChar

StartChar: B
Encoding: 66 66 33
Width: 576
VWidth: 228
Flags: W
HStem: 201 98<121 329> 480 98<168 360> 759 98<198 406>
CounterMasks: 1 e0
LayerCount: 2
Back
Fore
SplineSet
164 857 m 0
 444 857 l 2
 455 857 469 850 476 842 c 2
 552 749 l 2
 559 741 565 726 563 715 c 2
 547 622 l 2
 545 611 534 595 525 587 c 2
 458 529 l 1
 506 470 l 2
 513 462 518 447 516 436 c 2
 501 343 l 2
 499 332 488 316 479 308 c 2
 371 215 l 2
 362 207 346 201 335 201 c 2
 63 201 l 2
 61 201 57 200 55 200 c 0
 44 200 30 206 23 214 c 0
 21 215 l 0
 16 222 13 234 13 244 c 0
 13 246 13 248 13 250 c 0
 13 252 17 256 17 258 c 2
 60 521 l 2
 60 523 60 527 60 529 c 0
 60 531 63 535 63 537 c 2
 108 808 l 2
 112 835 137 857 164 857 c 0
198 759 m 1
 168 578 l 1
 376 578 l 1
 453 642 l 1
 461 695 l 1
 406 759 l 1
 198 759 l 1
152 480 m 1
 121 299 l 1
 329 299 l 1
 406 363 l 1
 415 415 l 1
 360 480 l 1
 152 480 l 1
EndSplineSet
EndChar

StartChar: C
Encoding: 67 67 34
Width: 576
VWidth: 228
Flags: W
HStem: 201 98<176 322> 759 98<252 398>
LayerCount: 2
Back
Fore
SplineSet
249 857 m 0
 435 857 l 2
 446 857 461 850 468 842 c 2
 545 749 l 2
 551 742 555 729 555 719 c 0
 555 689 524 665 497 665 c 0
 486 665 470 672 463 680 c 2
 398 759 l 1
 252 759 l 1
 178 695 l 1
 122 363 l 1
 176 299 l 1
 322 299 l 1
 413 377 l 2
 422 385 440 392 451 392 c 0
 475 392 494 374 494 351 c 0
 494 348 493 346 493 343 c 0
 491 332 480 316 471 308 c 2
 364 215 l 2
 355 207 336 201 325 201 c 2
 139 201 l 2
 128 201 115 207 108 215 c 2
 29 308 l 2
 24 315 21 327 21 337 c 0
 21 339 21 341 21 343 c 2
 83 715 l 2
 85 726 94 741 103 749 c 2
 212 842 l 2
 221 850 238 857 249 857 c 0
EndSplineSet
EndChar

StartChar: D
Encoding: 68 68 35
Width: 576
VWidth: 228
Flags: W
HStem: 201 98<121 329> 759 98<198 406>
LayerCount: 2
Back
Fore
SplineSet
164 857 m 0
 444 857 l 2
 455 857 469 850 476 842 c 2
 552 749 l 2
 559 741 565 726 563 715 c 2
 501 343 l 2
 499 332 488 316 479 308 c 2
 371 215 l 2
 362 207 346 201 335 201 c 2
 63 201 l 2
 61 201 57 200 55 200 c 0
 44 200 30 206 23 214 c 0
 21 215 l 0
 16 222 13 234 13 244 c 0
 13 246 13 248 13 250 c 0
 13 252 17 256 17 258 c 2
 108 808 l 2
 112 835 137 857 164 857 c 0
198 759 m 1
 121 299 l 1
 329 299 l 1
 406 363 l 1
 461 695 l 1
 406 759 l 1
 198 759 l 1
EndSplineSet
EndChar

StartChar: E
Encoding: 69 69 36
Width: 576
VWidth: 228
Flags: W
HStem: 201 98<113 463.559> 480 98<159 416.383> 759 98<189 556.559>
CounterMasks: 1 e0
LayerCount: 2
Back
Fore
SplineSet
156 857 m 1
 528 857 l 2
 552 857 570 839 570 816 c 0
 570 813 570 811 570 808 c 0
 566 781 538 759 511 759 c 0
 189 759 l 1
 159 578 l 1
 389 578 l 2
 413 578 430 560 430 537 c 0
 430 534 429 532 429 529 c 0
 425 502 400 480 373 480 c 0
 143 480 l 1
 113 299 l 1
 435 299 l 2
 459 299 477 281 477 258 c 0
 477 255 477 253 477 250 c 0
 473 223 445 201 418 201 c 0
 46 201 l 2
 22 201 6 219 6 242 c 0
 6 245 7 247 7 250 c 2
 52 521 l 2
 52 523 51 527 51 529 c 0
 51 531 54 535 54 537 c 2
 100 808 l 2
 104 835 129 857 156 857 c 1
EndSplineSet
EndChar

StartChar: F
Encoding: 70 70 37
Width: 576
VWidth: 228
Flags: W
HStem: 200 21G<34 59.5> 480 98<159 416.383> 759 98<189 556.559>
LayerCount: 2
Back
Fore
SplineSet
156 857 m 1
 528 857 l 2
 552 857 570 839 570 816 c 0
 570 813 570 811 570 808 c 0
 566 781 538 759 511 759 c 0
 189 759 l 1
 159 578 l 1
 389 578 l 2
 413 578 430 560 430 537 c 0
 430 534 429 532 429 529 c 0
 425 502 400 480 373 480 c 0
 143 480 l 1
 105 250 l 2
 104 249 l 0
 100 222 73 200 46 200 c 0
 22 200 6 218 6 241 c 0
 6 244 6 246 6 249 c 0
 7 250 l 2
 52 521 l 2
 52 523 51 527 51 529 c 0
 51 531 54 535 54 537 c 2
 100 808 l 2
 104 835 129 857 156 857 c 1
EndSplineSet
EndChar

StartChar: G
Encoding: 71 71 38
Width: 576
VWidth: 228
Flags: W
HStem: 201 98<176 386> 480 98<250.617 416> 759 98<252 398>
CounterMasks: 1 e0
LayerCount: 2
Back
Fore
SplineSet
249 857 m 0
 435 857 l 2
 446 857 461 850 468 842 c 2
 545 749 l 2
 551 742 555 729 555 719 c 0
 555 689 524 665 497 665 c 0
 486 665 470 672 463 680 c 2
 398 759 l 1
 252 759 l 1
 178 695 l 1
 122 363 l 1
 176 299 l 1
 386 299 l 1
 416 480 l 1
 280 480 l 2
 278 480 l 0
 254 480 237 498 237 521 c 0
 237 524 238 526 238 529 c 0
 242 556 267 578 294 578 c 0
 296 578 l 2
 482 578 l 2
 506 578 523 560 523 537 c 0
 523 534 522 532 522 529 c 2
 476 250 l 2
 472 223 446 201 419 201 c 2
 139 201 l 2
 128 201 115 207 108 215 c 2
 29 308 l 2
 24 315 21 327 21 337 c 0
 21 339 21 341 21 343 c 2
 83 715 l 2
 85 726 94 741 103 749 c 2
 212 842 l 2
 221 850 238 857 249 857 c 0
EndSplineSet
EndChar

StartChar: H
Encoding: 72 72 39
Width: 576
VWidth: 228
Flags: W
HStem: 200 21G<34 59.5 406 431.5> 480 98<159 417> 838 20G<142.5 168 514.5 540>
VStem: 100 98<766.761 845.249> 472 98<766.761 845.249>
LayerCount: 2
Back
Fore
SplineSet
156 858 m 0
 180 858 198 840 198 817 c 0
 198 814 198 812 198 809 c 0
 198 808 l 2
 159 578 l 1
 433 578 l 1
 472 808 l 2
 472 809 l 0
 476 836 501 858 528 858 c 0
 552 858 570 840 570 817 c 0
 570 814 570 812 570 809 c 0
 570 808 l 2
 524 537 l 2
 524 535 523 531 523 529 c 0
 523 527 522 523 522 521 c 2
 477 250 l 2
 476 249 l 0
 472 222 445 200 418 200 c 0
 394 200 378 218 378 241 c 0
 378 244 378 246 378 249 c 0
 379 250 l 2
 417 480 l 1
 143 480 l 1
 105 250 l 2
 104 249 l 0
 100 222 73 200 46 200 c 0
 22 200 6 218 6 241 c 0
 6 244 6 246 6 249 c 0
 7 250 l 2
 52 521 l 2
 52 523 51 527 51 529 c 0
 51 531 54 535 54 537 c 2
 100 808 l 2
 100 809 l 0
 104 836 129 858 156 858 c 0
EndSplineSet
EndChar

StartChar: I
Encoding: 73 73 40
Width: 576
VWidth: 228
Flags: W
HStem: 201 98<112.764 202 300 370.953> 759 98<205.047 278 376 463.236>
LayerCount: 2
Back
Fore
SplineSet
343 858 m 0
 345 858 349 857 351 857 c 2
 437 857 l 2
 461 857 477 839 477 816 c 0
 477 813 476 811 476 808 c 0
 472 781 447 759 420 759 c 0
 376 759 l 1
 300 299 l 1
 344 299 l 2
 368 299 384 281 384 258 c 0
 384 255 384 253 384 250 c 0
 380 223 354 201 327 201 c 0
 241 201 l 2
 239 201 235 200 233 200 c 0
 231 200 227 201 225 201 c 2
 141 201 l 2
 139 201 l 0
 115 201 99 219 99 242 c 0
 99 245 100 247 100 250 c 0
 104 277 129 299 156 299 c 0
 158 299 l 2
 202 299 l 1
 278 759 l 1
 234 759 l 2
 232 759 l 0
 208 759 192 777 192 800 c 0
 192 803 192 805 192 808 c 0
 196 835 222 857 249 857 c 0
 251 857 l 2
 335 857 l 2
 337 857 341 858 343 858 c 0
EndSplineSet
EndChar

StartChar: J
Encoding: 74 74 41
Width: 576
VWidth: 228
Flags: W
HStem: 201 98<216 268> 838 20G<460.5 487>
VStem: 418 98<766.467 845.249>
LayerCount: 2
Back
Fore
SplineSet
474 858 m 0
 475 858 l 0
 499 858 516 840 516 817 c 0
 516 814 516 812 516 809 c 0
 516 808 l 2
 438 343 l 2
 436 332 426 316 417 308 c 2
 309 215 l 2
 300 207 283 201 272 201 c 2
 179 201 l 2
 168 201 154 207 147 215 c 2
 69 308 l 2
 63 315 60 328 60 338 c 0
 60 340 60 341 60 343 c 0
 64 370 90 392 117 392 c 0
 128 392 143 385 150 377 c 2
 216 299 l 1
 268 299 l 1
 343 363 l 1
 418 808 l 2
 418 809 l 0
 422 836 447 858 474 858 c 0
EndSplineSet
EndChar

StartChar: K
Encoding: 75 75 42
Width: 576
VWidth: 228
Flags: W
HStem: 200 21G<35 60.5 413.5 432.5> 838 20G<143.5 169 523.5 541>
VStem: 99 98<766.651 844.447>
LayerCount: 2
Back
Fore
SplineSet
157 858 m 0
 181 858 197 840 197 817 c 0
 197 814 197 812 197 809 c 0
 197 808 l 2
 154 554 l 1
 159 558 l 2
 163 562 169 566 173 569 c 2
 492 842 l 2
 501 850 518 857 529 857 c 0
 553 857 571 839 571 816 c 0
 571 813 571 811 571 808 c 0
 569 797 558 781 549 773 c 2
 264 529 l 1
 467 284 l 2
 473 277 478 264 478 254 c 0
 478 224 446 200 419 200 c 0
 408 200 395 207 388 215 c 2
 182 459 l 1
 131 415 l 1
 104 250 l 2
 103 249 l 0
 99 222 74 200 47 200 c 0
 23 200 5 218 5 241 c 0
 5 244 5 246 5 249 c 0
 6 250 l 2
 35 429 l 2
 35 431 36 433 36 435 c 0
 36 437 38 440 38 442 c 2
 99 808 l 2
 99 809 l 0
 103 836 130 858 157 858 c 0
EndSplineSet
EndChar

StartChar: L
Encoding: 76 76 43
Width: 576
VWidth: 228
Flags: W
HStem: 201 98<158 511.01> 838 20G<187.5 215>
VStem: 145 98<772.071 845.249>
LayerCount: 2
Back
Fore
SplineSet
201 858 m 0
 203 858 l 0
 227 858 244 840 244 817 c 0
 244 814 243 812 243 809 c 0
 243 808 l 2
 158 299 l 1
 482 299 l 2
 506 299 525 281 525 258 c 0
 525 255 524 253 524 250 c 0
 520 223 493 201 466 201 c 0
 94 201 l 2
 70 201 51 219 51 242 c 0
 51 245 52 247 52 250 c 2
 145 808 l 2
 145 809 l 0
 149 836 174 858 201 858 c 0
EndSplineSet
EndChar

StartChar: M
Encoding: 77 77 44
Width: 576
VWidth: 228
Flags: W
HStem: 200 21G<35 60.5 407 432.5> 837 20G<142.5 162.5 523.5 541>
LayerCount: 2
Back
Fore
SplineSet
156 857 m 0
 157 857 l 0
 168 857 182 850 189 842 c 2
 315 691 l 1
 491 842 l 2
 500 850 518 857 529 857 c 0
 553 857 570 839 570 816 c 0
 570 813 570 811 570 808 c 2
 477 250 l 2
 476 249 l 0
 472 222 446 200 419 200 c 0
 395 200 378 218 378 241 c 0
 378 244 378 246 378 249 c 0
 379 250 l 2
 452 690 l 1
 349 601 l 1
 337 529 l 2
 333 502 307 480 280 480 c 0
 256 480 238 498 238 521 c 0
 238 524 239 526 239 529 c 2
 251 601 l 1
 178 690 l 1
 105 250 l 2
 104 249 l 0
 100 222 74 200 47 200 c 0
 23 200 6 218 6 241 c 0
 6 244 6 246 6 249 c 0
 7 250 l 2
 100 808 l 2
 104 835 129 857 156 857 c 0
EndSplineSet
EndChar

StartChar: N
Encoding: 78 78 45
Width: 576
VWidth: 228
Flags: W
HStem: 200 21G<35 60.5 407 432.5> 838 20G<143.5 169 515.5 541>
VStem: 99 98<768.692 808 809 844.447>
LayerCount: 2
Back
Fore
SplineSet
157 858 m 0
 181 858 197 840 197 817 c 0
 197 814 197 812 197 809 c 0
 196 808 l 2
 184 735 l 1
 415 461 l 1
 472 808 l 2
 473 809 l 0
 477 836 502 858 529 858 c 0
 553 858 571 840 571 817 c 0
 571 814 571 812 571 809 c 0
 570 808 l 2
 494 349 l 2
 494 347 493 344 493 342 c 0
 493 340 492 338 492 336 c 2
 478 250 l 2
 477 249 l 0
 473 222 446 200 419 200 c 0
 395 200 379 218 379 241 c 0
 379 244 379 246 379 249 c 0
 380 250 l 2
 392 322 l 1
 161 597 l 1
 104 250 l 2
 103 249 l 0
 99 222 74 200 47 200 c 0
 23 200 5 218 5 241 c 0
 5 244 5 246 5 249 c 0
 6 250 l 2
 82 708 l 2
 82 710 83 713 83 715 c 0
 83 717 84 720 84 722 c 2
 98 808 l 2
 99 809 l 0
 103 836 130 858 157 858 c 0
EndSplineSet
EndChar

StartChar: O
Encoding: 79 79 46
Width: 576
VWidth: 228
Flags: W
HStem: 201 98<178 322> 759 98<254 398>
LayerCount: 2
Back
Fore
SplineSet
249 857 m 0
 437 857 l 2
 448 857 461 850 468 842 c 2
 545 749 l 2
 552 741 557 726 555 715 c 2
 493 343 l 2
 491 332 480 316 471 308 c 2
 364 215 l 2
 355 207 338 201 327 201 c 2
 139 201 l 2
 128 201 115 207 108 215 c 2
 34 303 l 2
 29 307 24 316 22 323 c 0
 22 325 l 0
 21 330 20 338 21 343 c 0
 21 345 22 348 22 350 c 2
 83 715 l 2
 85 726 96 741 105 749 c 2
 212 842 l 2
 221 850 238 857 249 857 c 0
254 759 m 1
 178 695 l 1
 122 363 l 1
 178 299 l 1
 322 299 l 1
 398 363 l 1
 454 695 l 1
 398 759 l 1
 254 759 l 1
EndSplineSet
EndChar

StartChar: P
Encoding: 80 80 47
Width: 576
VWidth: 228
Flags: W
HStem: 200 21G<42 67.5> 480 98<167 375> 759 98<197 405>
LayerCount: 2
Back
Fore
SplineSet
164 857 m 0
 444 857 l 2
 455 857 468 850 475 842 c 2
 552 749 l 2
 559 741 564 726 562 715 c 2
 547 622 l 2
 545 611 534 595 525 587 c 2
 417 494 l 2
 408 486 392 480 381 480 c 2
 151 480 l 1
 113 250 l 2
 112 249 l 0
 108 222 81 200 54 200 c 0
 30 200 14 218 14 241 c 0
 14 244 14 246 14 249 c 0
 15 250 l 2
 60 521 l 2
 60 523 59 527 59 529 c 0
 59 531 62 535 62 537 c 2
 108 808 l 2
 112 835 137 857 164 857 c 0
197 759 m 1
 167 578 l 1
 375 578 l 1
 452 642 l 1
 461 695 l 1
 405 759 l 1
 197 759 l 1
EndSplineSet
EndChar

StartChar: Q
Encoding: 81 81 48
Width: 576
VWidth: 228
Flags: W
HStem: 201 98<177 319> 759 98<253 399>
LayerCount: 2
Back
Fore
SplineSet
250 857 m 0
 436 857 l 2
 447 857 462 850 469 842 c 2
 546 749 l 2
 551 742 554 731 554 721 c 0
 554 719 554 717 554 715 c 2
 492 343 l 2
 490 332 481 316 472 308 c 2
 458 296 l 1
 468 284 l 2
 474 277 479 264 479 254 c 0
 479 224 447 200 420 200 c 0
 409 200 394 207 387 215 c 2
 379 227 l 1
 370 220 l 2
 365 214 355 208 347 205 c 0
 345 204 l 0
 340 202 331 200 326 200 c 0
 324 200 322 201 320 201 c 2
 140 201 l 2
 129 201 116 207 109 215 c 2
 30 308 l 2
 25 315 22 327 22 337 c 0
 22 339 22 341 22 343 c 2
 84 715 l 2
 86 726 95 741 104 749 c 2
 213 842 l 2
 222 850 239 857 250 857 c 0
253 759 m 1
 179 695 l 1
 123 363 l 1
 177 299 l 1
 319 299 l 1
 232 401 l 2
 227 408 223 420 223 430 c 0
 223 432 224 434 224 436 c 0
 228 463 255 485 282 485 c 0
 293 485 306 478 313 470 c 2
 398 368 l 1
 453 695 l 1
 399 759 l 1
 253 759 l 1
EndSplineSet
EndChar

StartChar: R
Encoding: 82 82 49
Width: 576
VWidth: 228
Flags: W
HStem: 200 21G<42 67.5 420.5 439.5> 480 98<167 173 313 375> 759 98<197 405>
LayerCount: 2
Back
Fore
SplineSet
164 857 m 0
 444 857 l 2
 455 857 468 850 475 842 c 2
 552 749 l 2
 559 741 564 726 562 715 c 2
 547 622 l 2
 545 611 534 595 525 587 c 2
 417 494 l 2
 408 486 392 480 381 480 c 2
 313 480 l 1
 474 284 l 2
 480 277 485 264 485 254 c 0
 485 224 453 200 426 200 c 0
 415 200 402 207 395 215 c 2
 173 480 l 1
 151 480 l 1
 113 250 l 2
 112 249 l 0
 108 222 81 200 54 200 c 0
 30 200 14 218 14 241 c 0
 14 244 14 246 14 249 c 0
 15 250 l 2
 60 521 l 2
 60 523 59 527 59 529 c 0
 59 531 62 535 62 537 c 2
 108 808 l 2
 112 835 137 857 164 857 c 0
197 759 m 1
 167 578 l 1
 203 578 l 2
 205 578 207 578 209 578 c 0
 211 578 215 578 217 578 c 2
 375 578 l 1
 452 642 l 1
 461 695 l 1
 405 759 l 1
 197 759 l 1
EndSplineSet
EndChar

StartChar: S
Encoding: 83 83 50
Width: 576
VWidth: 228
Flags: W
HStem: 201 98<178 322> 480 98<224 352> 759 98<254 398>
CounterMasks: 1 e0
LayerCount: 2
Back
Fore
SplineSet
251 857 m 0
 437 857 l 2
 448 857 461 850 468 842 c 2
 545 749 l 2
 551 742 555 729 555 719 c 0
 555 689 524 665 497 665 c 0
 486 665 472 672 465 680 c 2
 398 759 l 1
 254 759 l 1
 178 695 l 1
 169 642 l 1
 224 578 l 1
 390 578 l 2
 401 578 415 571 422 563 c 2
 498 470 l 2
 505 462 511 447 509 436 c 2
 493 343 l 2
 491 332 480 316 471 308 c 2
 364 215 l 2
 355 207 338 201 327 201 c 2
 141 201 l 2
 130 201 115 207 108 215 c 2
 31 308 l 2
 25 315 21 328 21 338 c 0
 21 368 52 392 79 392 c 0
 90 392 104 385 111 377 c 2
 178 299 l 1
 322 299 l 1
 398 363 l 1
 407 415 l 1
 352 480 l 1
 188 480 l 2
 177 480 161 486 154 494 c 2
 78 587 l 2
 71 595 66 611 68 622 c 2
 83 715 l 2
 85 726 96 741 105 749 c 2
 212 842 l 2
 221 850 240 857 251 857 c 0
EndSplineSet
EndChar

StartChar: T
Encoding: 84 84 51
Width: 576
VWidth: 228
Flags: W
HStem: 200 21G<175 200.5> 759 98<64.9902 232 330 511.01>
VStem: 147 98<213.553 285.929>
LayerCount: 2
Back
Fore
SplineSet
296 858 m 0
 298 858 302 857 304 857 c 2
 482 857 l 2
 506 857 525 839 525 816 c 0
 525 813 524 811 524 808 c 0
 520 781 493 759 466 759 c 0
 330 759 l 1
 245 250 l 2
 245 249 l 0
 241 222 214 200 187 200 c 0
 163 200 146 218 146 241 c 0
 146 244 147 246 147 249 c 0
 147 250 l 2
 232 759 l 1
 94 759 l 2
 70 759 51 777 51 800 c 0
 51 803 52 805 52 808 c 0
 56 835 83 857 110 857 c 0
 288 857 l 2
 290 857 294 858 296 858 c 0
EndSplineSet
EndChar

StartChar: U
Encoding: 85 85 52
Width: 576
VWidth: 228
Flags: W
HStem: 201 98<169 315> 838 20G<134.5 161 507.5 533>
VStem: 92 98<766.467 845.249> 464 98<766.467 844.709>
LayerCount: 2
Back
Fore
SplineSet
148 858 m 0
 149 858 l 0
 173 858 190 840 190 817 c 0
 190 814 190 812 190 809 c 0
 190 808 l 2
 115 363 l 1
 169 299 l 1
 315 299 l 1
 389 363 l 1
 464 808 l 2
 464 809 l 0
 468 836 494 858 521 858 c 0
 545 858 562 840 562 817 c 0
 562 814 562 812 562 809 c 0
 562 808 l 2
 484 343 l 2
 482 332 473 316 464 308 c 2
 356 215 l 2
 347 207 329 201 318 201 c 2
 132 201 l 2
 121 201 107 207 100 215 c 2
 22 308 l 2
 17 315 14 327 14 337 c 0
 14 339 14 341 14 343 c 2
 92 808 l 2
 92 809 l 0
 96 836 121 858 148 858 c 0
EndSplineSet
EndChar

StartChar: V
Encoding: 86 86 53
Width: 576
VWidth: 228
Flags: W
HStem: 201 21G<212.5 223.5> 838 20G<126.5 153 499.5 525>
VStem: 84 98<772.203 845.249> 456 98<772 844.709>
LayerCount: 2
Back
Fore
SplineSet
140 858 m 0
 141 858 l 0
 165 858 183 840 183 817 c 0
 183 814 182 812 182 809 c 0
 182 808 l 2
 123 456 l 1
 237 319 l 1
 397 456 l 1
 456 808 l 2
 456 809 l 0
 460 836 486 858 513 858 c 0
 537 858 555 840 555 817 c 0
 555 814 554 812 554 809 c 0
 554 808 l 2
 492 436 l 2
 490 425 481 409 472 401 c 2
 255 215 l 2
 246 207 229 201 218 201 c 0
 207 201 192 207 185 215 c 2
 30 401 l 2
 25 408 21 420 21 430 c 0
 21 432 22 434 22 436 c 2
 84 808 l 2
 84 809 l 0
 88 836 113 858 140 858 c 0
EndSplineSet
EndChar

StartChar: W
Encoding: 87 87 54
Width: 576
VWidth: 228
Flags: W
HStem: 201 21G<35 52.5 413.5 432.5> 838 20G<142.5 169 515.5 541>
VStem: 100 98<766.447 808 809 845.249>
LayerCount: 2
Back
Fore
SplineSet
156 858 m 0
 157 858 l 0
 181 858 198 840 198 817 c 0
 198 814 198 812 198 809 c 0
 197 808 l 2
 124 368 l 1
 227 456 l 1
 239 529 l 2
 243 556 269 578 296 578 c 0
 320 578 338 560 338 537 c 0
 338 534 337 532 337 529 c 0
 325 456 l 1
 398 368 l 1
 471 808 l 2
 472 809 l 0
 476 836 502 858 529 858 c 0
 553 858 570 840 570 817 c 0
 570 814 570 812 570 809 c 0
 569 808 l 2
 476 250 l 2
 472 223 446 201 419 201 c 0
 408 201 394 207 387 215 c 2
 261 366 l 1
 85 215 l 2
 76 207 58 201 47 201 c 0
 23 201 6 219 6 242 c 0
 6 245 6 247 6 250 c 2
 99 808 l 2
 100 809 l 0
 104 836 129 858 156 858 c 0
EndSplineSet
EndChar

StartChar: X
Encoding: 88 88 55
Width: 576
VWidth: 228
Flags: W
HStem: 200 21G<35 60.5 407 432.5> 838 20G<142.5 169 515.5 541>
VStem: 100 98<768.692 808 809 845.249>
LayerCount: 2
Back
Fore
SplineSet
156 858 m 0
 157 858 l 0
 181 858 198 840 198 817 c 0
 198 814 198 812 198 809 c 0
 197 808 l 2
 185 735 l 1
 299 598 l 1
 459 735 l 1
 471 808 l 2
 472 809 l 0
 476 836 502 858 529 858 c 0
 553 858 570 840 570 817 c 0
 570 814 570 812 570 809 c 0
 569 808 l 2
 554 715 l 2
 552 704 543 688 534 680 c 2
 357 529 l 1
 484 377 l 2
 489 370 492 359 492 349 c 0
 492 347 492 345 492 343 c 2
 477 250 l 2
 476 249 l 0
 472 222 446 200 419 200 c 0
 395 200 378 218 378 241 c 0
 378 244 378 246 378 249 c 0
 379 250 l 2
 391 322 l 1
 276 459 l 1
 117 322 l 1
 105 250 l 2
 104 249 l 0
 100 222 74 200 47 200 c 0
 23 200 6 218 6 241 c 0
 6 244 6 246 6 249 c 0
 7 250 l 2
 22 343 l 2
 24 354 33 369 42 377 c 2
 219 529 l 1
 92 680 l 2
 87 687 84 699 84 709 c 0
 84 711 84 713 84 715 c 2
 99 808 l 2
 100 809 l 0
 104 836 129 858 156 858 c 0
EndSplineSet
EndChar

StartChar: Y
Encoding: 89 89 56
Width: 576
VWidth: 228
Flags: W
HStem: 200 21G<182 207.5> 838 20G<103.5 130 476.5 502>
VStem: 61 98<768.692 845.249> 433 98<768.692 844.709>
LayerCount: 2
Back
Fore
SplineSet
117 858 m 0
 118 858 l 0
 142 858 159 840 159 817 c 0
 159 814 159 812 159 809 c 0
 159 808 l 2
 146 735 l 1
 261 598 l 1
 420 735 l 1
 433 808 l 2
 433 809 l 0
 437 836 463 858 490 858 c 0
 514 858 531 840 531 817 c 0
 531 814 531 812 531 809 c 0
 531 808 l 2
 515 715 l 2
 513 704 504 688 495 680 c 2
 295 508 l 1
 252 250 l 2
 251 249 l 0
 247 222 221 200 194 200 c 0
 170 200 153 218 153 241 c 0
 153 244 153 246 153 249 c 0
 154 250 l 2
 197 508 l 1
 53 680 l 2
 48 687 45 699 45 709 c 0
 45 711 45 713 45 715 c 2
 61 808 l 2
 61 809 l 0
 65 836 90 858 117 858 c 0
EndSplineSet
EndChar

StartChar: Z
Encoding: 90 90 57
Width: 576
VWidth: 228
Flags: W
HStem: 201 98<113 463.559> 759 98<111.187 463>
LayerCount: 2
Back
Fore
SplineSet
156 857 m 0
 528 857 l 2
 552 857 570 839 570 816 c 0
 570 813 570 811 570 808 c 2
 554 715 l 2
 552 704 541 688 532 680 c 2
 117 322 l 1
 113 299 l 1
 435 299 l 2
 459 299 477 281 477 258 c 0
 477 255 477 253 477 250 c 0
 473 223 445 201 418 201 c 0
 46 201 l 2
 22 201 6 219 6 242 c 0
 6 245 7 247 7 250 c 2
 22 343 l 2
 24 354 33 369 42 377 c 2
 459 735 l 1
 463 759 l 1
 139 759 l 2
 115 759 97 777 97 800 c 0
 97 803 98 805 98 808 c 0
 102 835 129 857 156 857 c 0
EndSplineSet
EndChar

StartChar: bracketleft
Encoding: 91 91 58
Width: 576
VWidth: 228
Flags: W
HStem: 201 98<206 370.953> 759 98<282 463.236>
LayerCount: 2
Back
Fore
SplineSet
249 857 m 0
 435 857 l 2
 437 857 l 0
 461 857 477 839 477 816 c 0
 477 813 476 811 476 808 c 0
 472 781 447 759 420 759 c 0
 418 759 l 2
 282 759 l 1
 206 299 l 1
 342 299 l 2
 344 299 l 0
 368 299 384 281 384 258 c 0
 384 255 384 253 384 250 c 0
 380 223 354 201 327 201 c 0
 325 201 l 2
 139 201 l 2
 115 201 99 219 99 242 c 0
 99 245 100 247 100 250 c 2
 192 808 l 2
 196 835 222 857 249 857 c 0
EndSplineSet
EndChar

StartChar: backslash
Encoding: 92 92 59
Width: 576
VWidth: 228
Flags: W
HStem: 200 21G<468.5 487.5>
LayerCount: 2
Back
Fore
SplineSet
102 764 m 0
 113 764 127 757 134 749 c 2
 522 284 l 2
 528 277 532 264 532 254 c 0
 532 252 531 251 531 249 c 0
 527 222 501 200 474 200 c 0
 463 200 449 207 442 215 c 2
 54 680 l 2
 48 687 44 700 44 710 c 0
 44 712 45 713 45 715 c 0
 49 742 75 764 102 764 c 0
EndSplineSet
EndChar

StartChar: bracketright
Encoding: 93 93 60
Width: 576
VWidth: 228
Flags: W
HStem: 201 98<112.764 294> 759 98<205.047 370>
LayerCount: 2
Back
Fore
SplineSet
251 857 m 0
 437 857 l 2
 461 857 477 839 477 816 c 0
 477 813 476 811 476 808 c 2
 384 250 l 2
 380 223 354 201 327 201 c 2
 141 201 l 2
 139 201 l 0
 115 201 99 219 99 242 c 0
 99 245 100 247 100 250 c 0
 104 277 129 299 156 299 c 0
 158 299 l 2
 294 299 l 1
 370 759 l 1
 234 759 l 2
 232 759 l 0
 208 759 192 777 192 800 c 0
 192 803 192 805 192 808 c 0
 196 835 222 857 249 857 c 0
 251 857 l 0
EndSplineSet
EndChar

StartChar: asciicircum
Encoding: 94 94 61
Width: 576
VWidth: 228
Flags: W
HStem: 479 285
LayerCount: 2
Back
Fore
SplineSet
327 764 m 0
 338 764 352 757 359 749 c 2
 514 563 l 2
 520 556 525 543 525 533 c 0
 525 503 493 479 466 479 c 0
 455 479 441 486 434 494 c 2
 308 646 l 1
 130 494 l 2
 121 486 105 479 94 479 c 0
 70 479 51 497 51 520 c 0
 51 523 52 525 52 528 c 0
 54 539 65 555 74 563 c 2
 291 749 l 2
 300 757 316 764 327 764 c 0
EndSplineSet
EndChar

StartChar: underscore
Encoding: 95 95 62
Width: 576
VWidth: 228
Flags: W
HStem: 108 98<-75.0098 651.01>
LayerCount: 2
Back
Fore
SplineSet
-30 206 m 0
 622 206 l 2
 646 206 665 188 665 165 c 0
 665 162 664 160 664 157 c 0
 660 130 633 108 606 108 c 0
 -46 108 l 2
 -70 108 -89 126 -89 149 c 0
 -89 152 -88 154 -88 157 c 0
 -84 184 -57 206 -30 206 c 0
EndSplineSet
EndChar

StartChar: grave
Encoding: 96 96 63
Width: 576
VWidth: 228
Flags: W
HStem: 572 285<274.788 301.916>
VStem: 209 157
LayerCount: 2
Back
Fore
SplineSet
266 857 m 0
 283 857 300 845 304 830 c 2
 366 644 l 2
 368 638 370 628 369 621 c 0
 365 594 338 572 311 572 c 0
 294 572 277 585 272 600 c 2
 209 786 l 2
 207 792 207 801 208 808 c 0
 212 835 238 857 265 857 c 0
 266 857 l 0
EndSplineSet
EndChar

StartChar: a
Encoding: 97 97 64
Width: 576
VWidth: 228
Flags: W
HStem: 201 98<216 268> 573 98<118.441 219>
LayerCount: 2
Back
Fore
SplineSet
164 671 m 0
 350 671 l 2
 361 671 374 664 381 656 c 2
 460 563 l 2
 465 556 468 545 468 535 c 0
 468 533 468 531 468 529 c 2
 453 442 l 2
 453 440 452 437 452 435 c 0
 452 433 451 431 451 429 c 2
 440 363 l 1
 505 284 l 2
 511 277 516 264 516 254 c 0
 516 224 484 200 457 200 c 0
 446 200 433 207 426 215 c 2
 377 273 l 1
 308 215 l 2
 299 207 282 201 271 201 c 2
 179 201 l 2
 168 201 153 207 146 215 c 2
 69 308 l 2
 64 315 60 327 60 337 c 0
 60 339 61 341 61 343 c 2
 76 436 l 2
 78 447 87 462 96 470 c 2
 204 563 l 2
 208 566 215 571 219 573 c 2
 147 573 l 2
 123 573 105 591 105 614 c 0
 105 617 105 619 105 622 c 0
 109 649 137 671 164 671 c 0
246 480 m 1
 171 415 l 1
 162 363 l 1
 216 299 l 1
 268 299 l 1
 342 363 l 1
 351 415 l 1
 298 480 l 1
 246 480 l 1
EndSplineSet
EndChar

StartChar: b
Encoding: 98 98 65
Width: 576
VWidth: 228
Flags: W
HStem: 201 98<183 299> 573 98<245 344> 838 20G<212.5 239>
VStem: 170 98<766.467 808 809 845.249>
LayerCount: 2
Back
Fore
SplineSet
226 858 m 0
 227 858 l 0
 251 858 268 840 268 817 c 0
 268 814 268 812 268 809 c 0
 267 808 l 2
 245 671 l 1
 382 671 l 2
 393 671 406 664 413 656 c 2
 491 563 l 2
 497 556 500 544 500 534 c 0
 500 532 500 531 500 529 c 2
 469 343 l 2
 467 332 457 316 448 308 c 2
 340 215 l 2
 331 207 314 201 303 201 c 2
 117 201 l 2
 93 201 76 219 76 242 c 0
 76 245 76 247 76 250 c 2
 137 614 l 2
 137 616 137 620 137 622 c 0
 137 624 140 628 140 630 c 2
 169 808 l 2
 170 809 l 0
 174 836 199 858 226 858 c 0
228 573 m 1
 183 299 l 1
 299 299 l 1
 374 363 l 1
 398 508 l 1
 344 573 l 1
 228 573 l 1
EndSplineSet
EndChar

StartChar: c
Encoding: 99 99 66
Width: 576
VWidth: 228
Flags: W
HStem: 201 98<238 291> 573 98<284 337>
LayerCount: 2
Back
Fore
SplineSet
280 671 m 2
 373 671 l 2
 384 671 399 664 406 656 c 2
 483 563 l 2
 489 556 493 543 493 533 c 0
 493 531 492 530 492 528 c 0
 488 501 462 479 435 479 c 0
 424 479 409 486 402 494 c 2
 337 573 l 1
 284 573 l 1
 209 508 l 1
 185 363 l 1
 238 299 l 1
 291 299 l 1
 382 377 l 2
 391 385 410 392 421 392 c 0
 445 392 462 374 462 351 c 0
 462 348 462 346 462 343 c 0
 460 332 450 316 441 308 c 2
 332 215 l 2
 323 207 306 201 295 201 c 2
 202 201 l 2
 191 201 176 207 169 215 c 2
 92 308 l 2
 87 315 83 327 83 337 c 0
 83 339 84 341 84 343 c 2
 115 529 l 2
 117 540 125 555 134 563 c 2
 243 656 l 2
 252 664 269 671 280 671 c 2
EndSplineSet
EndChar

StartChar: d
Encoding: 100 100 67
Width: 576
VWidth: 228
Flags: W
HStem: 201 98<215 332> 573 98<261 378> 838 20G<459.5 486>
VStem: 417 98<772.4 845.249>
LayerCount: 2
Back
Fore
SplineSet
473 858 m 0
 474 858 l 0
 498 858 516 840 516 817 c 0
 516 814 515 812 515 809 c 0
 515 808 l 2
 485 630 l 2
 485 628 485 624 485 622 c 0
 485 620 483 616 483 614 c 2
 422 250 l 2
 418 223 392 201 365 201 c 2
 179 201 l 2
 168 201 153 207 146 215 c 2
 69 308 l 2
 64 315 60 327 60 337 c 0
 60 339 61 341 61 343 c 2
 92 529 l 2
 94 540 102 555 111 563 c 2
 220 656 l 2
 229 664 246 671 257 671 c 2
 394 671 l 1
 417 808 l 2
 417 809 l 0
 421 836 446 858 473 858 c 0
261 573 m 1
 186 508 l 1
 162 363 l 1
 215 299 l 1
 332 299 l 1
 378 573 l 1
 261 573 l 1
EndSplineSet
EndChar

StartChar: e
Encoding: 101 101 68
Width: 576
VWidth: 228
Flags: W
HStem: 201 98<239 433.01> 387 98<206 387> 573 98<284 336>
CounterMasks: 1 e0
LayerCount: 2
Back
Fore
SplineSet
281 671 m 2
 374 671 l 2
 385 671 398 664 405 656 c 2
 483 563 l 2
 489 556 492 544 492 534 c 0
 492 532 492 531 492 529 c 2
 477 436 l 2
 473 409 446 387 419 387 c 2
 189 387 l 1
 185 363 l 1
 239 299 l 1
 405 299 l 2
 429 299 446 281 446 258 c 0
 446 255 446 253 446 250 c 0
 442 223 415 201 388 201 c 0
 202 201 l 2
 191 201 177 207 170 215 c 2
 92 308 l 2
 87 315 84 327 84 337 c 0
 84 339 84 341 84 343 c 2
 98 428 l 2
 98 430 99 434 99 436 c 0
 99 438 101 442 101 444 c 2
 115 529 l 2
 117 540 126 555 135 563 c 2
 243 656 l 2
 252 664 270 671 281 671 c 2
284 573 m 1
 210 508 l 1
 206 485 l 1
 387 485 l 1
 391 508 l 1
 336 573 l 1
 284 573 l 1
EndSplineSet
EndChar

StartChar: f
Encoding: 102 102 69
Width: 576
VWidth: 228
Flags: W
HStem: 200 21G<198 223.5> 480 98<135.617 209 323 394.643> 759 98<353 440.383>
VStem: 170 98<213.553 285.385>
LayerCount: 2
Back
Fore
SplineSet
319 857 m 1
 413 857 l 2
 437 857 454 839 454 816 c 0
 454 813 453 811 453 808 c 0
 449 781 424 759 397 759 c 0
 353 759 l 1
 323 578 l 1
 367 578 l 2
 391 578 407 560 407 537 c 0
 407 534 407 532 407 529 c 0
 403 502 378 480 351 480 c 0
 307 480 l 1
 268 250 l 2
 268 249 l 0
 264 222 237 200 210 200 c 0
 186 200 169 218 169 241 c 0
 169 244 170 246 170 249 c 0
 170 250 l 2
 209 480 l 1
 165 480 l 2
 163 480 l 0
 139 480 122 498 122 521 c 0
 122 524 123 526 123 529 c 0
 127 556 152 578 179 578 c 0
 181 578 l 2
 225 578 l 1
 263 808 l 2
 267 835 292 857 319 857 c 1
EndSplineSet
EndChar

StartChar: g
Encoding: 103 103 70
Width: 576
VWidth: 228
Flags: W
HStem: 108 98<231 283> 294 98<262 314> 573 98<293 345>
LayerCount: 2
Back
Fore
SplineSet
289 671 m 2
 382 671 l 2
 393 671 406 664 413 656 c 2
 491 563 l 2
 497 556 501 544 501 534 c 0
 501 532 500 531 500 529 c 2
 486 443 l 2
 486 441 485 438 485 436 c 0
 485 434 484 432 484 430 c 2
 454 250 l 2
 452 239 442 223 433 215 c 2
 324 122 l 2
 315 114 299 108 288 108 c 2
 195 108 l 2
 184 108 169 114 162 122 c 2
 85 215 l 2
 79 222 75 235 75 245 c 0
 75 247 76 248 76 250 c 0
 80 277 106 299 133 299 c 0
 144 299 158 292 165 284 c 2
 231 206 l 1
 283 206 l 1
 359 270 l 1
 367 317 l 1
 355 308 l 2
 346 300 330 294 319 294 c 2
 226 294 l 2
 215 294 200 300 193 308 c 2
 116 401 l 2
 111 408 107 420 107 430 c 0
 107 432 108 434 108 436 c 2
 123 529 l 2
 125 540 134 555 143 563 c 2
 251 656 l 2
 260 664 278 671 289 671 c 2
293 573 m 1
 218 508 l 1
 209 456 l 1
 262 392 l 1
 314 392 l 1
 390 456 l 1
 399 508 l 1
 345 573 l 1
 293 573 l 1
EndSplineSet
EndChar

StartChar: h
Encoding: 104 104 71
Width: 576
VWidth: 228
Flags: W
HStem: 200 21G<105 130.5 384 409.5> 573 98<245 344> 838 20G<212.5 239>
VStem: 76 98<213.291 291.77> 170 98<766.467 808 809 845.249> 355 98<213.291 291.553>
LayerCount: 2
Back
Fore
SplineSet
226 858 m 0xec
 227 858 l 0
 251 858 268 840 268 817 c 0
 268 814 268 812 268 809 c 0xec
 267 808 l 2
 245 671 l 1
 382 671 l 2
 393 671 406 664 413 656 c 2
 491 563 l 2
 497 556 500 544 500 534 c 0
 500 532 500 531 500 529 c 2
 453 250 l 2
 453 249 l 0
 449 222 423 200 396 200 c 0
 372 200 355 218 355 241 c 0
 355 244 355 246 355 249 c 0
 355 250 l 2
 398 508 l 1
 344 573 l 1
 228 573 l 1
 174 250 l 2
 174 249 l 0
 170 222 144 200 117 200 c 0
 93 200 76 218 76 241 c 0
 76 244 76 246 76 249 c 0
 76 250 l 2xf4
 137 614 l 2
 137 616 137 620 137 622 c 0
 137 624 140 628 140 630 c 2
 169 808 l 2
 170 809 l 0
 174 836 199 858 226 858 c 0xec
EndSplineSet
EndChar

StartChar: i
Encoding: 105 105 72
Width: 576
VWidth: 228
Flags: W
HStem: 200 21G<229 254.5>
VStem: 200 98<213.291 285.617> 262 98<586.258 662.688> 278 98<680.125 752.249>
LayerCount: 2
Back
Fore
SplineSet
334 765 m 0x90
 335 765 l 0
 359 765 377 747 377 724 c 0
 377 721 376 719 376 716 c 0
 376 715 l 2x90
 360 622 l 2
 360 621 l 0xa0
 357 602 339 582 320 575 c 1
 335 569 345 553 345 536 c 0
 345 534 345 531 345 529 c 0
 298 250 l 2
 298 249 l 0
 294 222 268 200 241 200 c 0
 217 200 199 218 199 241 c 0
 199 244 200 246 200 249 c 0
 200 250 l 2xc0
 247 529 l 2
 250 548 267 568 286 575 c 1
 271 581 262 597 262 614 c 0
 262 616 262 619 262 621 c 0
 262 622 l 2xa0
 278 715 l 2
 278 716 l 0
 282 743 307 765 334 765 c 0x90
EndSplineSet
EndChar

StartChar: j
Encoding: 106 106 73
Width: 576
VWidth: 228
Flags: W
HStem: 108 98<216 268>
VStem: 402 98<614.094 662.688> 418 98<674.312 752.249>
LayerCount: 2
Back
Fore
SplineSet
474 765 m 0xa0
 475 765 l 0
 499 765 516 747 516 724 c 0
 516 721 516 719 516 716 c 0
 516 715 l 2xa0
 500 622 l 2
 500 621 l 0
 497 602 479 582 460 575 c 1
 475 569 485 553 485 536 c 0
 485 534 485 531 485 529 c 0
 438 250 l 2
 436 239 426 223 417 215 c 2
 309 122 l 2
 300 114 283 108 272 108 c 2
 179 108 l 2
 168 108 154 114 147 122 c 2
 69 215 l 2
 63 222 60 235 60 245 c 0
 60 247 60 248 60 250 c 0
 64 277 90 299 117 299 c 0
 128 299 143 292 150 284 c 2
 216 206 l 1
 268 206 l 1
 343 270 l 1
 387 529 l 2
 390 548 406 568 425 575 c 1
 410 581 401 597 401 614 c 0
 401 616 402 619 402 621 c 0
 402 622 l 2xc0
 418 715 l 2
 418 716 l 0
 422 743 447 765 474 765 c 0xa0
EndSplineSet
EndChar

StartChar: k
Encoding: 107 107 74
Width: 576
VWidth: 228
Flags: W
HStem: 200 21G<97 122.5 383.5 402.5> 651 20G<461.5 479> 838 20G<204.5 230>
VStem: 68 98<213.291 286.857> 161 98<772.103 844.709>
LayerCount: 2
Back
Fore
SplineSet
218 858 m 0xe8
 242 858 260 840 260 817 c 0
 260 814 259 812 259 809 c 0
 259 808 l 2xe8
 201 461 l 1
 206 465 l 2
 210 469 215 473 219 476 c 2
 430 656 l 2
 439 664 456 671 467 671 c 0
 491 671 509 653 509 630 c 0
 509 627 508 625 508 622 c 0
 506 611 496 595 487 587 c 2
 311 436 l 1
 437 284 l 2
 443 277 446 264 446 254 c 0
 446 252 446 251 446 249 c 0
 442 222 416 200 389 200 c 0
 378 200 363 207 356 215 c 2
 229 366 l 1
 178 322 l 1
 166 250 l 2
 166 249 l 0
 162 222 136 200 109 200 c 0
 85 200 67 218 67 241 c 0
 67 244 68 246 68 249 c 0
 68 250 l 2xf0
 82 336 l 2
 82 338 83 340 83 342 c 0
 83 344 85 347 85 349 c 2
 161 808 l 2
 161 809 l 0
 165 836 191 858 218 858 c 0xe8
EndSplineSet
EndChar

StartChar: l
Encoding: 108 108 75
Width: 576
VWidth: 228
Flags: W
HStem: 201 98<298 371.326> 838 20G<327.5 354>
VStem: 285 98<778.059 845.249>
LayerCount: 2
Back
Fore
SplineSet
341 858 m 0
 342 858 l 0
 366 858 384 840 384 817 c 0
 384 814 383 812 383 809 c 0
 383 808 l 2
 298 299 l 1
 342 299 l 2
 343 299 l 0
 367 299 385 281 385 258 c 0
 385 255 384 253 384 250 c 0
 380 223 354 201 327 201 c 0
 326 201 l 2
 233 201 l 2
 209 201 191 219 191 242 c 0
 191 245 192 247 192 250 c 2
 285 808 l 2
 285 809 l 0
 289 836 314 858 341 858 c 0
EndSplineSet
EndChar

StartChar: m
Encoding: 109 109 76
Width: 576
VWidth: 228
Flags: W
HStem: 200 21G<59 84.5 245 270.5 431 456.5> 651 20G<135.5 157.5 235.5 246.5 423.5 434.5>
VStem: 29 98<212.751 286.267> 215 98<212.751 286> 403 98<213.553 286>
LayerCount: 2
Back
Fore
SplineSet
149 671 m 0
 166 671 184 659 188 643 c 1
 205 656 l 2
 214 664 230 671 241 671 c 0
 252 671 268 664 275 656 c 2
 323 598 l 1
 391 656 l 2
 400 664 418 671 429 671 c 0
 440 671 454 664 461 656 c 2
 537 563 l 2
 544 555 549 540 547 529 c 2
 501 250 l 2
 501 249 l 0
 497 222 470 200 443 200 c 0
 419 200 402 218 402 241 c 0
 402 244 403 246 403 249 c 0
 403 250 l 2
 446 508 l 1
 409 552 l 1
 356 508 l 1
 313 250 l 2
 313 249 l 0
 309 222 284 200 257 200 c 0
 233 200 214 218 214 241 c 0
 214 244 215 246 215 249 c 0
 215 250 l 2
 258 508 l 1
 221 552 l 1
 170 508 l 1
 127 250 l 2
 127 249 l 0
 123 222 98 200 71 200 c 0
 47 200 28 218 28 241 c 0
 28 244 29 246 29 249 c 0
 29 250 l 2
 74 522 l 2
 74 524 75 526 75 528 c 0
 75 530 76 533 76 535 c 2
 91 622 l 2
 95 649 122 671 149 671 c 0
EndSplineSet
EndChar

StartChar: n
Encoding: 110 110 77
Width: 576
VWidth: 228
Flags: W
HStem: 200 21G<105 130.5 385 410.5> 573 98<293 345>
VStem: 77 98<213.553 286.391> 355 98<212.751 286>
LayerCount: 2
Back
Fore
SplineSet
289 671 m 2
 381 671 l 2
 392 671 408 664 415 656 c 2
 491 563 l 2
 496 556 500 545 500 535 c 0
 500 533 499 531 499 529 c 2
 453 250 l 2
 453 249 l 0
 449 222 424 200 397 200 c 0
 373 200 354 218 354 241 c 0
 354 244 355 246 355 249 c 0
 355 250 l 2
 398 508 l 1
 345 573 l 1
 293 573 l 1
 218 508 l 1
 175 250 l 2
 175 249 l 0
 171 222 144 200 117 200 c 0
 93 200 76 218 76 241 c 0
 76 244 77 246 77 249 c 0
 77 250 l 2
 123 529 l 1
 139 622 l 2
 143 649 168 670 195 670 c 0
 212 670 230 657 234 642 c 1
 251 656 l 2
 260 664 278 671 289 671 c 2
EndSplineSet
EndChar

StartChar: o
Encoding: 111 111 78
Width: 576
VWidth: 228
Flags: W
HStem: 201 98<239 291> 573 98<285 337>
LayerCount: 2
Back
Fore
SplineSet
280 671 m 2
 373 671 l 2
 384 671 399 664 406 656 c 2
 483 563 l 2
 489 556 493 544 493 534 c 0
 493 532 492 531 492 529 c 2
 461 343 l 2
 459 332 450 316 441 308 c 2
 332 215 l 2
 323 207 306 201 295 201 c 2
 202 201 l 2
 191 201 177 207 170 215 c 2
 97 303 l 2
 92 307 86 316 84 323 c 0
 84 325 l 0
 83 330 82 338 83 343 c 0
 83 345 85 348 85 350 c 2
 114 529 l 2
 116 540 126 555 135 563 c 2
 244 656 l 2
 253 664 269 671 280 671 c 2
285 573 m 1
 209 508 l 1
 185 363 l 1
 239 299 l 1
 291 299 l 1
 367 363 l 1
 391 508 l 1
 337 573 l 1
 285 573 l 1
EndSplineSet
EndChar

StartChar: p
Encoding: 112 112 79
Width: 576
VWidth: 228
Flags: W
HStem: 107 21G<97 122.5> 294 98<206 322> 573 98<236 352>
VStem: 69 98<120.553 193.828>
LayerCount: 2
Back
Fore
SplineSet
203 671 m 2
 389 671 l 2
 400 671 414 664 421 656 c 2
 498 563 l 2
 504 556 508 544 508 534 c 0
 508 532 508 531 508 529 c 2
 492 436 l 2
 490 425 480 409 471 401 c 2
 363 308 l 2
 354 300 338 294 327 294 c 2
 190 294 l 1
 167 157 l 2
 167 156 l 0
 163 129 136 107 109 107 c 0
 85 107 68 125 68 148 c 0
 68 151 69 153 69 156 c 0
 69 157 l 2
 98 335 l 2
 98 337 99 341 99 343 c 0
 99 345 101 349 101 351 c 2
 146 622 l 2
 150 649 176 671 203 671 c 2
236 573 m 1
 206 392 l 1
 322 392 l 1
 398 456 l 1
 406 508 l 1
 352 573 l 1
 236 573 l 1
EndSplineSet
EndChar

StartChar: q
Encoding: 113 113 80
Width: 576
VWidth: 228
Flags: W
HStem: 108 98<415 488.01> 294 98<230 332> 573 98<260 378>
LayerCount: 2
Back
Fore
SplineSet
256 671 m 2
 442 671 l 2
 466 671 485 653 485 630 c 0
 485 627 484 625 484 622 c 2
 439 351 l 2
 439 349 438 345 438 343 c 0
 438 341 436 337 436 335 c 2
 415 206 l 1
 459 206 l 2
 483 206 501 188 501 165 c 0
 501 162 501 160 501 157 c 0
 497 130 470 108 443 108 c 0
 349 108 l 2
 325 108 308 126 308 149 c 0
 308 152 309 154 309 157 c 2
 332 294 l 1
 194 294 l 2
 183 294 169 300 162 308 c 2
 83 401 l 2
 78 408 75 420 75 430 c 0
 75 432 75 434 75 436 c 2
 91 529 l 2
 93 540 101 555 110 563 c 2
 220 656 l 2
 229 664 245 671 256 671 c 2
260 573 m 1
 185 508 l 1
 177 456 l 1
 230 392 l 1
 348 392 l 1
 378 573 l 1
 260 573 l 1
EndSplineSet
EndChar

StartChar: r
Encoding: 114 114 81
Width: 576
VWidth: 228
Flags: W
HStem: 200 21G<160 185.5> 573 98<347 464.326>
VStem: 131 98<213.291 286>
LayerCount: 2
Back
Fore
SplineSet
156 671 m 0
 167 671 182 664 189 656 c 2
 238 598 l 1
 306 656 l 2
 315 664 332 671 343 671 c 2
 436 671 l 2
 460 671 478 653 478 630 c 0
 478 627 477 625 477 622 c 0
 473 595 447 573 420 573 c 0
 347 573 l 1
 272 508 l 1
 229 250 l 2
 229 249 l 0
 225 222 199 200 172 200 c 0
 148 200 130 218 130 241 c 0
 130 244 131 246 131 249 c 0
 131 250 l 2
 174 508 l 1
 108 587 l 2
 102 594 98 607 98 617 c 0
 98 619 99 620 99 622 c 0
 103 649 129 671 156 671 c 0
EndSplineSet
EndChar

StartChar: s
Encoding: 115 115 82
Width: 576
VWidth: 228
Flags: W
HStem: 201 98<239 291> 573 98<285 337>
LayerCount: 2
Back
Fore
SplineSet
281 671 m 2
 374 671 l 2
 385 671 399 664 406 656 c 2
 483 563 l 2
 489 556 493 543 493 533 c 0
 493 531 492 530 492 528 c 0
 488 501 462 479 435 479 c 0
 424 479 410 486 403 494 c 2
 337 573 l 1
 285 573 l 1
 234 529 l 1
 270 485 l 1
 343 485 l 2
 354 485 368 478 375 470 c 2
 452 377 l 2
 458 370 462 358 462 348 c 0
 462 346 462 345 462 343 c 0
 460 332 450 316 441 308 c 2
 332 215 l 2
 323 207 307 201 296 201 c 2
 203 201 l 2
 192 201 177 207 170 215 c 2
 93 308 l 2
 87 315 83 328 83 338 c 0
 83 340 84 341 84 343 c 0
 88 370 114 392 141 392 c 0
 152 392 166 385 173 377 c 2
 239 299 l 1
 291 299 l 1
 343 343 l 1
 306 387 l 1
 234 387 l 2
 223 387 208 393 201 401 c 2
 124 494 l 2
 118 501 114 514 114 524 c 0
 114 526 115 527 115 529 c 0
 117 540 126 555 135 563 c 2
 244 656 l 2
 253 664 270 671 281 671 c 2
EndSplineSet
EndChar

StartChar: t
Encoding: 116 116 83
Width: 576
VWidth: 228
Flags: W
HStem: 201 98<284 355.383> 573 98<158.617 232 346 417.383> 838 20G<313.5 339>
VStem: 271 98<772.261 845.249>
LayerCount: 2
Back
Fore
SplineSet
327 858 m 0
 351 858 370 840 370 817 c 0
 370 814 369 812 369 809 c 0
 369 808 l 2
 346 671 l 1
 390 671 l 2
 414 671 431 653 431 630 c 0
 431 627 430 625 430 622 c 0
 426 595 401 573 374 573 c 0
 330 573 l 1
 284 299 l 1
 328 299 l 2
 352 299 369 281 369 258 c 0
 369 255 368 253 368 250 c 0
 364 223 339 201 312 201 c 0
 218 201 l 2
 194 201 177 219 177 242 c 0
 177 245 178 247 178 250 c 2
 232 573 l 1
 188 573 l 2
 186 573 l 0
 162 573 145 591 145 614 c 0
 145 617 146 619 146 622 c 0
 150 649 175 671 202 671 c 0
 204 671 l 2
 248 671 l 1
 271 808 l 2
 271 809 l 0
 275 836 300 858 327 858 c 0
EndSplineSet
EndChar

StartChar: u
Encoding: 117 117 84
Width: 576
VWidth: 228
Flags: W
HStem: 201 98<175 355> 651 20G<173.5 199 453.5 479>
LayerCount: 2
Back
Fore
SplineSet
187 671 m 0
 211 671 230 653 230 630 c 0
 230 627 229 625 229 622 c 0
 175 299 l 1
 355 299 l 1
 409 622 l 2
 413 649 440 671 467 671 c 0
 491 671 508 653 508 630 c 0
 508 627 507 625 507 622 c 0
 445 250 l 2
 441 223 416 201 389 201 c 2
 109 201 l 2
 85 201 68 219 68 242 c 0
 68 245 69 247 69 250 c 2
 131 622 l 2
 135 649 160 671 187 671 c 0
EndSplineSet
EndChar

StartChar: v
Encoding: 118 118 85
Width: 576
VWidth: 228
Flags: W
HStem: 201 21G<227.5 238.5> 651 20G<111.5 138 484.5 510>
LayerCount: 2
Back
Fore
SplineSet
125 671 m 0
 126 671 l 0
 150 671 167 653 167 630 c 0
 167 627 166 625 166 622 c 0
 139 456 l 1
 253 319 l 1
 413 456 l 1
 440 622 l 2
 444 649 471 671 498 671 c 0
 522 671 539 653 539 630 c 0
 539 627 538 625 538 622 c 0
 507 436 l 2
 505 425 497 409 488 401 c 2
 271 215 l 2
 262 207 244 201 233 201 c 0
 222 201 208 207 201 215 c 2
 46 401 l 2
 41 408 37 420 37 430 c 0
 37 432 37 434 37 436 c 2
 68 622 l 2
 72 649 98 671 125 671 c 0
EndSplineSet
EndChar

StartChar: w
Encoding: 119 119 86
Width: 576
VWidth: 228
Flags: W
HStem: 201 21G<142.5 153.5 328.5 339.5> 651 20G<118.5 145 491.5 517>
LayerCount: 2
Back
Fore
SplineSet
132 671 m 0
 133 671 l 0
 157 671 175 653 175 630 c 0
 175 627 174 625 174 622 c 0
 131 363 l 1
 168 319 l 1
 219 363 l 1
 231 436 l 2
 235 463 261 484 288 484 c 0
 312 484 330 467 330 444 c 0
 330 441 329 439 329 436 c 2
 317 363 l 1
 354 319 l 1
 405 363 l 1
 448 622 l 2
 452 649 478 671 505 671 c 0
 529 671 547 653 547 630 c 0
 547 627 546 625 546 622 c 0
 500 343 l 2
 498 332 489 316 480 308 c 2
 371 215 l 2
 362 207 345 201 334 201 c 0
 323 201 308 207 301 215 c 2
 253 273 l 1
 185 215 l 2
 176 207 159 201 148 201 c 0
 137 201 122 207 115 215 c 2
 38 308 l 2
 33 315 29 327 29 337 c 0
 29 339 30 341 30 343 c 2
 76 622 l 2
 80 649 105 671 132 671 c 0
EndSplineSet
EndChar

StartChar: x
Encoding: 120 120 87
Width: 576
VWidth: 228
Flags: W
HStem: 200 21G<51 68.5 429.5 448.5> 651 20G<127.5 146.5 507.5 525>
LayerCount: 2
Back
Fore
SplineSet
141 671 m 0
 152 671 166 664 173 656 c 2
 300 505 l 1
 477 656 l 2
 486 664 502 671 513 671 c 0
 537 671 556 653 556 630 c 0
 556 627 555 625 555 622 c 0
 553 611 542 595 533 587 c 2
 358 436 l 1
 483 284 l 2
 489 277 493 264 493 254 c 0
 493 224 462 200 435 200 c 0
 424 200 410 207 403 215 c 2
 276 366 l 1
 99 215 l 2
 90 207 74 200 63 200 c 0
 39 200 20 218 20 241 c 0
 20 244 21 246 21 249 c 0
 23 260 34 276 43 284 c 2
 218 436 l 1
 93 587 l 2
 87 594 83 607 83 617 c 0
 83 647 114 671 141 671 c 0
EndSplineSet
EndChar

StartChar: y
Encoding: 121 121 88
Width: 576
VWidth: 228
Flags: W
HStem: 107 21G<43 60.5> 651 20G<135.5 161 507.5 533>
LayerCount: 2
Back
Fore
SplineSet
149 671 m 0
 173 671 190 653 190 630 c 0
 190 627 189 625 189 622 c 0
 177 549 l 1
 292 412 l 1
 453 549 l 1
 465 622 l 2
 469 649 494 671 521 671 c 0
 545 671 563 653 563 630 c 0
 563 627 563 625 563 622 c 0
 547 529 l 2
 545 518 534 502 525 494 c 2
 316 314 l 2
 312 310 308 305 304 302 c 2
 92 122 l 2
 83 114 66 107 55 107 c 0
 31 107 13 125 13 148 c 0
 13 151 13 153 13 156 c 0
 15 167 26 183 35 191 c 2
 210 343 l 1
 85 494 l 2
 78 502 73 518 75 529 c 2
 91 622 l 2
 95 649 122 671 149 671 c 0
EndSplineSet
EndChar

StartChar: z
Encoding: 122 122 89
Width: 576
VWidth: 228
Flags: W
HStem: 201 98<196 479.01> 573 98<94.9902 378>
LayerCount: 2
Back
Fore
SplineSet
140 671 m 0
 512 671 l 2
 536 671 555 653 555 630 c 0
 555 627 554 625 554 622 c 0
 552 611 541 595 532 587 c 2
 196 299 l 1
 450 299 l 2
 474 299 493 281 493 258 c 0
 493 255 492 253 492 250 c 0
 488 223 461 201 434 201 c 0
 62 201 l 2
 38 201 21 219 21 242 c 0
 21 245 22 247 22 250 c 0
 24 261 33 276 42 284 c 2
 378 573 l 1
 124 573 l 2
 100 573 81 591 81 614 c 0
 81 617 82 619 82 622 c 0
 86 649 113 671 140 671 c 0
EndSplineSet
EndChar

StartChar: braceleft
Encoding: 123 123 90
Width: 576
VWidth: 228
Flags: W
HStem: 201 98<262 362.953> 759 98<338 455.953>
LayerCount: 2
Back
Fore
SplineSet
335 857 m 0
 427 857 l 2
 429 857 l 0
 453 857 469 839 469 816 c 0
 469 813 469 811 469 808 c 0
 465 781 439 759 412 759 c 0
 410 759 l 2
 338 759 l 1
 287 715 l 1
 335 656 l 2
 340 649 344 638 344 628 c 0
 344 626 344 624 344 622 c 0
 342 611 333 595 324 587 c 2
 256 529 l 1
 304 470 l 2
 309 463 313 452 313 442 c 0
 313 440 313 438 313 436 c 0
 311 425 302 409 293 401 c 2
 225 343 l 1
 262 299 l 1
 334 299 l 2
 336 299 l 0
 360 299 376 281 376 258 c 0
 376 255 376 253 376 250 c 0
 372 223 346 201 319 201 c 0
 317 201 l 2
 225 201 l 2
 214 201 199 207 192 215 c 2
 115 308 l 2
 110 315 107 327 107 337 c 0
 107 339 107 341 107 343 c 0
 109 354 118 369 127 377 c 2
 195 436 l 1
 146 494 l 2
 141 501 138 513 138 523 c 0
 138 525 138 527 138 529 c 0
 140 540 149 555 158 563 c 2
 226 622 l 1
 177 680 l 2
 172 687 169 699 169 709 c 0
 169 711 169 713 169 715 c 0
 171 726 180 741 189 749 c 2
 296 842 l 2
 305 850 324 857 335 857 c 0
EndSplineSet
EndChar

StartChar: bar
Encoding: 124 124 91
Width: 576
VWidth: 228
Flags: W
HStem: 107 21G<213 238.5> 838 20G<336.5 363>
VStem: 185 98<120.553 193.167> 293 98<771.833 844.709>
LayerCount: 2
Back
Fore
SplineSet
350 858 m 0
 351 858 l 0
 375 858 392 840 392 817 c 0
 392 814 391 812 391 809 c 0
 391 808 l 2
 283 157 l 2
 283 156 l 0
 279 129 252 107 225 107 c 0
 201 107 184 125 184 148 c 0
 184 151 185 153 185 156 c 0
 185 157 l 2
 293 808 l 2
 293 809 l 0
 297 836 323 858 350 858 c 0
EndSplineSet
EndChar

StartChar: braceright
Encoding: 125 125 92
Width: 576
VWidth: 228
Flags: W
HStem: 201 98<120.047 238> 759 98<213.047 314>
LayerCount: 2
Back
Fore
SplineSet
259 857 m 1
 351 857 l 2
 362 857 375 850 382 842 c 2
 461 749 l 2
 466 742 469 731 469 721 c 0
 469 719 469 717 469 715 c 0
 467 704 458 688 449 680 c 2
 381 622 l 1
 430 563 l 2
 435 556 438 545 438 535 c 0
 438 533 438 531 438 529 c 0
 436 518 427 502 418 494 c 2
 350 436 l 1
 399 377 l 2
 404 370 407 359 407 349 c 0
 407 347 407 345 407 343 c 0
 405 332 396 316 387 308 c 2
 278 215 l 2
 269 207 252 201 241 201 c 2
 149 201 l 2
 147 201 l 0
 123 201 107 219 107 242 c 0
 107 245 107 247 107 250 c 0
 111 277 137 299 164 299 c 0
 166 299 l 2
 238 299 l 1
 289 343 l 1
 241 401 l 2
 236 408 232 420 232 430 c 0
 232 432 232 434 232 436 c 0
 234 447 243 462 252 470 c 2
 320 529 l 1
 272 587 l 2
 267 594 263 606 263 616 c 0
 263 618 263 620 263 622 c 0
 265 633 274 648 283 656 c 2
 351 715 l 1
 314 759 l 1
 242 759 l 2
 240 759 l 0
 216 759 200 777 200 800 c 0
 200 803 200 805 200 808 c 0
 204 835 230 857 257 857 c 0
 259 857 l 1
EndSplineSet
EndChar

StartChar: asciitilde
Encoding: 126 126 93
Width: 576
VWidth: 228
Flags: W
HStem: 387 284
LayerCount: 2
Back
Fore
SplineSet
218 671 m 0
 220 671 l 0
 231 671 244 664 251 656 c 2
 378 505 l 1
 446 563 l 2
 455 571 471 578 482 578 c 0
 506 578 525 560 525 537 c 0
 525 534 524 532 524 529 c 0
 522 518 511 502 502 494 c 2
 395 401 l 2
 386 393 369 387 358 387 c 0
 347 387 332 393 325 401 c 2
 200 552 l 1
 130 494 l 2
 121 486 105 479 94 479 c 0
 70 479 51 497 51 520 c 0
 51 523 52 525 52 528 c 0
 54 539 65 555 74 563 c 2
 181 656 l 2
 190 664 207 671 218 671 c 0
EndSplineSet
EndChar

StartChar: sterling
Encoding: 163 163 94
Width: 576
VWidth: 228
Flags: W
HStem: 201 98<130 178 321 510.326> 480 98<203.674 277 391 464.326> 666 98<470 588.326>
LayerCount: 2
Back
Fore
SplineSet
466 764 m 1
 559 764 l 2
 560 764 l 0
 584 764 602 746 602 723 c 0
 602 720 601 718 601 715 c 0
 597 688 571 666 544 666 c 0
 543 666 l 2
 470 666 l 1
 395 601 l 1
 391 578 l 1
 435 578 l 2
 436 578 l 0
 460 578 478 560 478 537 c 0
 478 534 477 532 477 529 c 0
 473 502 447 480 420 480 c 0
 419 480 l 2
 375 480 l 1
 352 343 l 2
 350 332 341 316 332 308 c 2
 321 299 l 1
 482 299 l 2
 483 299 l 0
 507 299 524 281 524 258 c 0
 524 255 523 253 523 250 c 0
 519 223 493 201 466 201 c 0
 465 201 l 2
 279 201 l 2
 268 201 254 207 247 215 c 2
 238 227 l 1
 224 215 l 2
 215 207 197 201 186 201 c 2
 93 201 l 2
 82 201 68 207 61 215 c 2
 -17 308 l 2
 -22 315 -26 327 -26 337 c 0
 -26 339 -25 341 -25 343 c 0
 -23 354 -14 369 -5 377 c 2
 103 470 l 2
 112 478 130 485 141 485 c 0
 152 485 166 478 173 470 c 2
 258 368 l 1
 277 480 l 1
 233 480 l 2
 232 480 l 0
 208 480 190 498 190 521 c 0
 190 524 191 526 191 529 c 0
 195 556 221 578 248 578 c 0
 249 578 l 2
 293 578 l 1
 300 622 l 2
 302 633 311 648 320 656 c 2
 429 749 l 2
 438 757 455 764 466 764 c 1
121 366 m 1
 93 343 l 1
 130 299 l 1
 178 299 l 1
 121 366 l 1
EndSplineSet
EndChar

StartChar: pi
Encoding: 960 960 95
Width: 576
VWidth: 228
Flags: W
HStem: 200 21G<129 154.5 315 340.5> 480 98<236 324> 651 20G<492.5 510>
LayerCount: 2
Back
Fore
SplineSet
498 671 m 0
 522 671 540 653 540 630 c 0
 540 627 540 625 540 622 c 0
 538 611 527 595 518 587 c 2
 427 508 l 1
 384 250 l 2
 383 249 l 0
 379 222 354 200 327 200 c 0
 303 200 285 218 285 241 c 0
 285 244 285 246 285 249 c 0
 286 250 l 2
 324 480 l 1
 236 480 l 1
 198 250 l 2
 197 249 l 0
 193 222 168 200 141 200 c 0
 117 200 99 218 99 241 c 0
 99 244 99 246 99 249 c 0
 100 250 l 2
 126 410 l 1
 115 401 l 2
 106 393 89 386 78 386 c 0
 54 386 36 404 36 427 c 0
 36 430 36 432 36 435 c 0
 38 446 49 462 58 470 c 2
 166 563 l 2
 173 569 186 575 194 577 c 0
 197 578 201 578 204 578 c 2
 368 578 l 1
 461 656 l 2
 470 664 487 671 498 671 c 0
EndSplineSet
EndChar

StartChar: arrowleft
Encoding: 8592 8592 96
Width: 576
VWidth: 228
Flags: W
HStem: 480 98<182 557.326>
LayerCount: 2
Back
Fore
SplineSet
280 764 m 0
 281 764 l 0
 305 764 323 746 323 723 c 0
 323 720 322 718 322 715 c 0
 320 704 310 688 301 680 c 2
 182 578 l 1
 529 578 l 2
 553 578 571 560 571 537 c 0
 571 534 570 532 570 529 c 0
 566 502 540 480 513 480 c 0
 166 480 l 1
 251 377 l 2
 257 370 260 357 260 347 c 0
 260 345 260 344 260 342 c 0
 256 315 230 293 203 293 c 0
 192 293 177 300 170 308 c 2
 18 490 l 2
 10 497 5 511 5 523 c 0
 5 525 6 527 6 529 c 0
 8 542 19 560 31 568 c 2
 244 749 l 2
 253 757 269 764 280 764 c 0
EndSplineSet
EndChar

StartChar: arrowup
Encoding: 8593 8593 97
Width: 576
VWidth: 228
Flags: W
HStem: 200 21G<221 246.5>
VStem: 194 98<214.024 285.897>
LayerCount: 2
Back
Fore
SplineSet
328 765 m 0
 341 765 356 756 362 745 c 2
 514 563 l 2
 520 556 525 543 525 533 c 0
 525 503 493 479 466 479 c 0
 455 479 441 486 434 494 c 2
 350 597 l 1
 292 250 l 2
 292 249 l 0
 288 222 260 200 233 200 c 0
 209 200 193 218 193 241 c 0
 193 244 194 246 194 249 c 0
 194 250 l 2
 252 597 l 1
 130 494 l 2
 121 486 105 479 94 479 c 0
 70 479 51 497 51 520 c 0
 51 523 52 525 52 528 c 0
 54 539 65 555 74 563 c 2
 284 745 l 2
 294 756 315 765 328 765 c 0
EndSplineSet
EndChar

StartChar: SF100000
Encoding: 9472 9472 98
Width: 576
VWidth: 228
Flags: W
HStem: 480 98<-75.0098 651.01>
LayerCount: 2
Back
Fore
SplineSet
-30 578 m 0
 622 578 l 2
 646 578 665 560 665 537 c 0
 665 534 664 532 664 529 c 0
 660 502 633 480 606 480 c 0
 -46 480 l 2
 -70 480 -89 498 -89 521 c 0
 -89 524 -88 526 -88 529 c 0
 -84 556 -57 578 -30 578 c 0
EndSplineSet
EndChar

StartChar: SF110000
Encoding: 9474 9474 99
Width: 576
VWidth: 228
Flags: W
HStem: 107 21G<213 238.5> 838 20G<336.5 363>
VStem: 185 98<120.553 193.167> 293 98<771.833 844.709>
LayerCount: 2
Back
Fore
SplineSet
350 858 m 0
 351 858 l 0
 375 858 392 840 392 817 c 0
 392 814 391 812 391 809 c 0
 391 808 l 2
 283 157 l 2
 283 156 l 0
 279 129 252 107 225 107 c 0
 201 107 184 125 184 148 c 0
 184 151 185 153 185 156 c 0
 185 157 l 2
 293 808 l 2
 293 809 l 0
 297 836 323 858 350 858 c 0
EndSplineSet
EndChar

StartChar: uni25B3
Encoding: 9651 9651 100
Width: 576
VWidth: 228
Flags: W
HStem: 201 98<136 456>
LayerCount: 2
Back
Fore
SplineSet
343 578 m 0
 354 578 367 571 374 563 c 2
 608 284 l 2
 613 277 616 266 616 256 c 0
 616 254 616 252 616 250 c 0
 612 223 587 201 560 201 c 2
 8 201 l 2
 6 201 2 200 -0 200 c 0
 -18 200 -35 214 -39 230 c 0
 -39 231 l 0
 -40 236 -41 245 -40 250 c 0
 -38 263 -28 281 -16 289 c 2
 306 563 l 2
 315 571 332 578 343 578 c 0
323 459 m 1
 136 299 l 1
 456 299 l 1
 323 459 l 1
EndSplineSet
EndChar

StartChar: uni25FB
Encoding: 9723 9723 101
Width: 576
VWidth: 228
Flags: W
HStem: 201 98<67 434> 759 98<143 510>
LayerCount: 2
Back
Fore
SplineSet
111 857 m 0
 576 857 l 2
 600 857 617 839 617 816 c 0
 617 813 616 811 616 808 c 2
 523 250 l 2
 519 223 493 201 466 201 c 2
 9 201 l 2
 7 201 3 200 1 200 c 0
 -10 200 -25 206 -32 214 c 0
 -32 215 l 0
 -37 222 -41 234 -41 244 c 0
 -41 246 -41 248 -41 250 c 0
 -41 252 -38 256 -38 258 c 2
 53 808 l 2
 57 835 84 857 111 857 c 0
143 759 m 1
 67 299 l 1
 434 299 l 1
 510 759 l 1
 143 759 l 1
EndSplineSet
EndChar

